<?xml version="1.0" encoding="UTF-8" standalone="no"?>
<svg
   xmlns:dc="http://purl.org/dc/elements/1.1/"
   xmlns:cc="http://creativecommons.org/ns#"
   xmlns:rdf="http://www.w3.org/1999/02/22-rdf-syntax-ns#"
   xmlns:svg="http://www.w3.org/2000/svg"
   xmlns="http://www.w3.org/2000/svg"
   xmlns:sodipodi="http://sodipodi.sourceforge.net/DTD/sodipodi-0.dtd"
   xmlns:inkscape="http://www.inkscape.org/namespaces/inkscape"
   sodipodi:docname="1988 Singaporean Election map.svg"
   inkscape:version="1.0 (4035a4fb49, 2020-05-01)"
   id="svg8"
   version="1.1"
   viewBox="0 0 338.61044 221.75681"
   height="221.75682mm"
   width="338.61044mm">
  <defs
     id="defs2">
    <pattern
       id="EMFhbasepattern"
       patternUnits="userSpaceOnUse"
       width="6"
       height="6"
       x="0"
       y="0" />
    <pattern
       id="EMFhbasepattern-1"
       patternUnits="userSpaceOnUse"
       width="6"
       height="6"
       x="0"
       y="0" />
    <filter
       height="1.0064187"
       y="-0.0032093369"
       width="1.0038333"
       x="-0.0019166543"
       id="filter1128"
       style="color-interpolation-filters:sRGB"
       inkscape:collect="always">
      <feGaussianBlur
         id="feGaussianBlur1130"
         stdDeviation="0.003470577"
         inkscape:collect="always" />
    </filter>
  </defs>
  <sodipodi:namedview
     inkscape:window-maximized="1"
     inkscape:window-y="-8"
     inkscape:window-x="-8"
     inkscape:window-height="1018"
     inkscape:window-width="1920"
     inkscape:lockguides="true"
     showgrid="false"
     inkscape:document-rotation="0"
     inkscape:current-layer="svg8"
     inkscape:document-units="mm"
     inkscape:cy="457.66945"
     inkscape:cx="653.56697"
     inkscape:zoom="0.8117387"
     inkscape:pageshadow="2"
     inkscape:pageopacity="0.0"
     borderopacity="1.0"
     bordercolor="#666666"
     pagecolor="#ffffff"
     id="base" />
  <metadata
     id="metadata5">
    <rdf:RDF>
      <cc:Work
         rdf:about="">
        <dc:format>image/svg+xml</dc:format>
        <dc:type
           rdf:resource="http://purl.org/dc/dcmitype/StillImage" />
        <dc:title></dc:title>
      </cc:Work>
    </rdf:RDF>
  </metadata>
  <g
     style="fill:#2c5aa0;fill-opacity:1;stroke-width:0.133546;stroke-miterlimit:4;stroke-dasharray:none"
     transform="matrix(1.4974865,0,0,1.4977394,77.239964,-270.19438)"
     id="Constituencies"
     inkscape:label="Constituencies">
    <path
       inkscape:label="Jurong GRC"
       transform="matrix(0.26458333,0,0,0.26458333,-54.82309,172.97269)"
       d="m 108.71289,189.68945 -7.84375,19.61328 -0.28125,-2.24218 -1.121093,2.52148 -1.679688,-3.36133 v 3.08203 h -2.523437 l -0.279297,1.67969 -9.806641,21.29492 -7.003906,5.04297 -2.242187,6.44531 c 0,0 9.525962,4.76336 -1.681641,3.64258 -11.207603,-1.12074 -3.921875,9.2461 -3.921875,9.2461 v 2.52148 l -3.642578,-2.24219 -1.960938,3.92383 2.240235,1.1211 1.68164,2.52148 -3.361328,6.16406 -1.121094,1.68164 v 2.52149 c 0,0 -22.69687,63.32255 -24.658203,67.52539 -1.961329,4.20287 3.082363,5.04275 4.203125,7.56445 1.120759,2.5217 5.044922,1.40039 5.044922,1.40039 L 86.298828,355 h 1.400391 l 1.68164,-3.92188 -2.242187,-4.76367 -21.294922,-12.60742 5.044922,-13.73047 -10.927734,-15.41015 6.724609,-6.72461 17.371094,17.37109 9.80664,-10.36719 5.042969,3.36328 -10.646484,10.36719 5.603515,7.28516 -0.560547,2.24023 7.005856,-10.08594 3.92188,-2.24218 1.68164,-0.2793 1.12109,0.83984 0.2793,0.8418 -1.12109,1.40039 -12.888676,13.16797 3.363282,4.20313 4.203124,-3.92188 2.24024,1.96094 -2.52149,4.20312 3.36328,-3.08203 4.20313,2.24219 -4.08594,3.6543 2.68359,0.26757 4.20313,-3.08203 9.24609,11.20703 1.96094,4.48438 -1.96094,2.52148 17.0918,-13.73046 -9.52539,-10.64649 -1.1211,-8.40625 7.28516,-0.56055 -0.28125,6.16407 8.68555,10.92773 4.20312,-0.56055 -0.5332,-0.56836 4.45703,-1.11328 -1.96289,-14.00781 -1.96094,-2.80273 h 1.1211 l 1.68164,-3.92188 2.24023,5.04297 0.56055,4.48242 1.96289,8.9668 16.81055,-3.36328 -1.1211,-3.92188 0.8418,-3.36328 1.11914,-2.80078 3.36328,-2.24219 1.96094,0.8418 0.83984,2.80078 2.24219,0.28125 1.12109,1.96094 3.08203,1.40039 0.83985,4.48242 10.64844,-0.2793 v -10.36718 l 1.96093,0.56054 2.52149,-1.68164 h 7.8457 l 9.24609,7.00586 11.48829,7.00391 2.52148,-3.08203 -1.68164,-7.28516 5.04297,1.40039 1.96094,-1.11914 -3.64258,-1.68164 -4.48242,-1.68164 -1.1211,-7.56445 8.9668,-13.73047 1.12109,-5.88281 1.1211,-5.88477 8.68554,0.56055 7.00391,4.76367 6.16406,1.40039 -1.12109,-7.28516 -8.68555,-6.44336 5.04492,-5.88476 -2.52343,-2.52149 -4.76172,-1.96093 -8.40625,-7.00586 -6.72461,-4.76172 -6.72461,-0.8418 -7.28516,-0.56055 0.28125,3.64258 -3.92383,1.40235 -9.24609,6.72265 -8.40625,-0.27929 -0.83984,-4.48243 -10.64649,-17.09179 -14.57031,-10.64649 -3.08203,-10.92773 1.96094,-4.76367 0.83984,-7.28516 1.40234,-5.32422 -5.04492,-1.40039 -3.36133,2.80273 -2.52148,3.36133 -4.20313,1.1211 -8.96679,-6.72461 -1.1211,-0.83985 -0.55859,-4.48437 -4.20313,-4.48242 -2.24218,0.83984 -5.32422,-0.2793 0.84179,-3.92383 -1.40234,-2.80078 h -2.52148 -2.24024 l -1.96289,1.1211 -1.40039,-1.1211 -1.40039,1.1211 -3.92383,-1.1211 -3.08203,3.36133 -2.24023,-2.24023 -2.24219,1.40039 -2.24219,-3.08203 z m -4.64453,151.31446 -0.11719,-0.0117 -1.12109,1.11914 z m 70.34375,-17.67579 -0.92383,0.18555 -1.01562,1.19922 -0.63672,1.87891 1.65234,0.15429 -0.73828,0.92383 0.36914,1.38477 0.18555,2.125 -0.0938,1.84765 0.83203,-0.18359 6.09765,0.18359 -0.18554,-4.98828 -2.86328,-2.67773 -1.29297,-1.57227 z m 31.03906,0 -2.86328,0.36915 -1.01562,0.46289 -0.36915,3.14062 1.29297,0.46094 0.36914,2.21875 h 3.23438 l 0.46094,2.76953 1.84765,0.36914 2.40235,-0.27539 0.64648,-1.01758 0.46094,-2.21679 c 0,0 -0.46194,-1.01636 -0.92383,-1.20118 -0.4619,-0.18474 -0.83008,-1.29297 -0.83008,-1.29297 l -1.9414,0.36915 -0.27735,-1.01563 -1.29297,-1.38477 -0.73828,-0.0938 z m -11.04883,23.9375 c -0.91472,0.0293 -2.33323,0.1471 -2.5039,0.23243 -0.22757,0.11384 -1.53711,0.45507 -1.53711,0.45507 0,0 -0.79587,1.87795 -1.02344,2.10547 -0.22757,0.22791 -1.5361,-0.0566 -1.76367,-0.0566 -0.22757,0 -0.85352,2.16211 -0.85352,2.16211 l 2.10547,2.04688 1.99024,1.02539 1.25195,1.70508 c 0,0 1.70729,2.04933 1.65039,2.39062 -0.0569,0.34137 -0.96875,1.08008 -0.96875,1.08008 l -0.85156,1.70703 1.08008,1.99219 -0.0566,2.84375 1.42187,2.38867 c 0,0 3.07215,-0.11371 3.98242,-0.0566 l 0.56836,-2.44531 0.62695,-0.17188 c 0,0 0.68164,-0.68155 0.68164,-1.13672 0,-0.45513 0.17061,-0.96735 0.45508,-1.25195 0.28446,-0.2846 0.74118,0 0.96875,0 0.22757,0 0.85352,0.74023 0.85352,0.74023 0,0 0.62519,0.39801 1.02344,0.45508 0.39824,0.0571 0.68164,0 0.68164,0 0,0 0.11397,-0.45558 0.39843,-0.79687 0.28446,-0.34133 0.0568,-0.39867 0.45508,-0.79688 0.39824,-0.39832 0.91016,-0.74023 0.91016,-0.74023 0,0 -0.17036,-0.51124 -0.51172,-0.625 -0.34135,-0.11377 -0.51146,-1.02394 -0.56836,-1.36524 -0.0569,-0.34133 0.85421,-0.79687 1.13867,-0.79687 0.28446,0 1.19336,-0.11328 1.19336,-0.11328 0,0 -0.34104,-1.02339 -0.51172,-1.47852 -0.17067,-0.45513 1.0244,-1.48047 1.25196,-1.48047 0.22757,0 1.59249,0.39844 1.87695,0.39844 0.28446,0 1.25195,0.56836 1.25195,0.56836 0,0 0.28497,-3.92487 -0.11328,-4.0957 -0.39824,-0.17069 -1.19531,-1.36524 -1.19531,-1.36524 0,0 -1.76291,-0.96636 -1.9336,-1.02344 -0.17067,-0.0569 -1.70791,-0.28566 -2.39062,-0.62695 -0.6827,-0.34133 -2.16155,-0.79511 -2.73047,-1.19336 -0.56893,-0.39821 -1.81975,-1.30958 -2.38867,-1.53711 -0.56892,-0.22752 -1.08222,9.2e-4 -1.48047,-0.16992 -0.39824,-0.17068 -1.47851,-0.11514 -1.47851,-0.57031 0,-0.45528 -1.76337,-0.34175 -2.2754,-0.39844 -0.128,-0.0143 -0.37673,-0.0137 -0.68164,-0.004 z m 25.94141,2.10938 -0.625,0.56836 c 0,0 -1.30904,0.79706 -1.65039,1.19531 -0.34136,0.39825 0.2263,0.91035 0.2832,1.3086 0.0569,0.39824 -0.16992,1.30859 -0.16992,1.30859 l -0.22656,0.74023 0.45508,0.68164 3.1289,-0.0566 0.56836,-1.30859 c 0,0 -0.11473,-1.76386 -0.22851,-2.16211 -0.11379,-0.39825 -0.79637,-0.17043 -0.91016,-0.51172 -0.11378,-0.34137 -0.625,-1.76367 -0.625,-1.76367 z m -54.15234,1.85156 -3.97266,0.64649 h -1.84766 l 0.1836,2.40234 c 0,0 -1.84632,-0.18432 -2.67774,-0.36914 -0.83141,-0.18474 -0.46289,1.38477 -0.46289,1.38477 l -2.40039,-0.0918 -0.74023,3.97266 -0.73828,0.83007 0.0918,0.92383 1.38672,1.94141 -1.10937,1.20117 c 0,0 -1.20079,0.92303 -1.57032,1.01562 -0.36952,0.0924 0.83204,3.78711 0.83204,3.78711 l -0.55469,0.18555 0.27734,0.92383 3.50977,-0.18555 1.10937,-0.27734 0.1836,-3.32422 c 0,0 1.66367,-1.01758 2.0332,-1.01758 0.36952,0 1.84611,0.46289 2.40039,0.46289 0.55428,0 1.94141,-0.64648 1.94141,-0.64648 l 0.27734,-2.58789 1.10742,-0.36914 0.27735,-1.20118 c 0,0 -1.10762,-2.03075 -1.38477,-2.40039 -0.27714,-0.36948 0.46094,-1.75586 0.46094,-1.75586 l 3.23437,-2.31054 c 0,0 -0.46193,-0.83008 -0.92383,-0.83008 -0.46188,0 -0.46289,-1.01758 -0.46289,-1.01758 z m 53.7539,5.54492 c 0,0 -1.13811,0.22657 -1.70703,0.22657 -0.56892,0 -0.11398,0.5702 -0.39844,1.48047 -0.28446,0.91018 -0.91009,0.22803 -1.36523,0.34179 -0.45514,0.11377 0.0578,0.79515 0.22851,1.19336 0.17068,0.3981 0.28321,0.45508 0.28321,0.45508 l 4.09765,-0.79687 c 0,0 0.2834,0.11528 0.68164,0.0586 0.39825,-0.0569 0.11329,-0.74024 0.11329,-0.74024 l -1.70508,-0.11328 c 0,0 -0.0586,-0.51187 -0.0586,-0.91015 0,-0.39821 -0.16992,-1.19532 -0.16992,-1.19532 z m -32.14453,3.29883 -1.76367,0.11524 0.51172,1.59179 0.68359,0.74024 0.22852,1.53515 h 1.13672 v -1.87695 c 0,-0.22756 -0.3418,-1.13672 -0.3418,-1.13672 z m -5.76953,0.37696 -2.33984,1.06445 -1.70118,1.70117 -4.03906,1.91406 -0.21289,2.97657 -1.70117,1.0625 2.33789,2.97656 -4.25195,2.76562 0.63672,2.55078 -2.97657,3.19141 -4.25195,0.42383 2.97656,3.1914 2.55078,-0.21289 5.31641,-1.06445 2.76562,1.06445 1.70118,-3.61523 6.80468,1.0625 5.74219,2.12695 2.55078,-1.0625 0.85157,-2.12695 v -3.61523 l -2.33985,-2.12696 -5.10351,-3.40234 0.21289,-3.61524 z m 42.57227,0.29882 c -0.57604,0.0356 -1.13086,0.1211 -1.13086,0.1211 h -4.20899 c -0.79649,0 -2.5039,0.91015 -2.5039,0.91015 l -0.6836,1.25196 -0.79492,4.4375 -0.45703,0.51172 -1.02344,1.48046 -3.07226,2.10352 -0.9668,2.33398 c 0,0 9.4e-4,0.56779 0.22851,1.13672 0.22756,0.56894 2.27554,0.96712 4.89258,2.21875 2.61704,1.25163 2.38957,0.91024 4.83594,2.21875 2.44637,1.30855 1.99017,0.73932 2.44531,0.91016 0.45514,0.17068 2.50335,1.47907 3.07227,1.76367 0.56892,0.28449 2.61813,1.47999 2.8457,1.59375 0.22757,0.1138 2.38867,1.3086 2.38867,1.3086 0,0 3.01601,0.51263 3.8125,0.34179 0.79649,-0.17083 0.62494,-0.0581 1.08008,-0.17187 0.45514,-0.11377 1.3086,-1.19336 1.3086,-1.19336 l 2.21874,-1.87891 c 0,0 2.5593,-0.68159 2.84376,-0.73828 0.28447,-0.0569 4.4375,-0.51367 4.4375,-0.51367 l 0.39843,-2.38867 -0.11328,-2.16211 c 0,0 -1.64963,-3.0713 -1.82031,-3.29883 -0.17068,-0.22757 -1.13862,-0.39867 -1.59375,-0.79688 -0.45514,-0.39825 -1.99137,-1.36475 -2.61719,-1.47851 -0.62581,-0.11377 -1.87689,-0.17096 -2.33203,-0.3418 -0.45514,-0.17083 -1.82075,-0.28516 -2.16211,-0.28516 -0.34135,0 -1.99138,-1.30854 -2.61719,-1.76367 -0.62581,-0.45513 -1.70552,-1.59235 -2.04687,-1.87695 -0.34135,-0.28445 -2.50479,-2.16157 -3.1875,-2.73047 -0.6827,-0.56893 -2.04807,-2.44745 -2.21875,-2.8457 -0.0853,-0.19899 -0.68178,-0.21331 -1.25781,-0.17774 z m -15.06836,4.04688 c -0.22757,0 -1.76437,0.62556 -2.04883,0.91015 -0.28447,0.28449 0.5683,0.28468 1.02344,0.39844 0.45513,0.11377 -0.39844,1.42188 -0.39844,1.42188 l -0.33985,0.34179 c 0,0 0.16897,2.56055 -0.0586,2.56055 -0.22757,0 3.58399,-0.22851 3.58399,-0.22851 l 0.79687,-3.92579 -0.9668,-1.36523 c 0,0 -1.36422,-0.11328 -1.59179,-0.11328 z m -68.87891,3.65625 -2.52344,1.68164 0.8418,4.20312 0.2793,3.08204 h 7.28515 3.08203 l 3.64258,-2.80274 -1.40039,-2.52148 -1.68164,-2.24024 h -4.20312 l -2.52149,0.2793 z m 62.43555,7.09375 c -0.0879,-0.0109 -0.17904,-0.0123 -0.27149,0.002 -0.7396,0.11377 -1.13766,0.17139 -1.36523,0.28516 -0.22757,0.11376 -2.55979,1.13767 -2.73047,1.36523 -0.17068,0.22753 -1.08008,2.33203 -1.08008,2.33203 0,0 -0.0583,0.22767 -0.11523,0.85352 -0.0569,0.62581 0.001,2.44622 0.11523,2.67383 0.11378,0.22753 0.22656,2.44726 0.22656,2.44726 l 0.79688,1.59375 v 1.70508 c 0,0.22753 0.91015,3.07227 0.91015,3.07227 0.45514,0.17083 13.19922,6.88476 13.19922,6.88476 l 2.78711,2.67383 c 0,0 2.16275,0.11328 2.90235,0.11328 0.7396,0 2.38912,-0.90991 2.73047,-0.9668 0.34135,-0.0571 2.61618,-3.30001 2.84375,-3.4707 0.22756,-0.17083 1.99237,-2.33155 2.39062,-2.44531 0.39824,-0.11376 2.16185,-2.5029 2.21875,-2.73047 0.0569,-0.22753 0.45558,-0.91129 0.3418,-1.53711 -0.11379,-0.62581 -0.45691,-0.79582 -1.36719,-1.47851 -0.91027,-0.68274 0.28584,-0.79688 -1.19336,-0.79688 -1.4792,0 -0.17189,0.11328 -1.93555,0.11328 -1.76366,0 -3.86857,-0.2851 -4.4375,-0.3418 -0.56892,-0.0571 -2.55859,0.3418 -2.55859,0.3418 l -1.48047,-2.04687 c 0,0 -0.17105,-0.79664 -0.79687,-0.85352 -0.62581,-0.0571 -1.93403,-0.34291 -2.27539,-0.51367 -0.34135,-0.17084 -2.73047,-1.53516 -2.73047,-1.53516 l 0.56836,-3.30078 c 0,0 -0.85341,0.22844 -1.76368,-0.16992 -0.91028,-0.39825 -2.33203,-1.42188 -2.33203,-1.42188 l -0.45507,-0.39843 -1.53516,-1.13867 -0.51367,-0.625 c 0,0 -0.47849,-0.60931 -1.09375,-0.68555 z m -15.31836,17.44141 -2.97852,0.21289 -1.70117,1.0625 h -4.25195 l -3.40235,1.48828 -2.97656,1.91406 c 0,0 -2.76586,-0.63877 -2.97851,2.76367 -0.21266,3.40245 2.55273,8.71875 2.55273,8.71875 l 3.40234,6.16797 4.67774,0.84961 16.375,-5.52734 7.23047,-4.67969 c 0,0 3.40192,-0.42571 1.27539,-2.12696 -2.12654,-1.7012 -5.95508,-4.46484 -5.95508,-4.46484 z"
       style="fill:#2c5aa0;fill-opacity:1;stroke:#ffffff;stroke-width:0.50474;stroke-linecap:butt;stroke-linejoin:miter;stroke-miterlimit:4;stroke-dasharray:none;stroke-opacity:1"
       id="Jurong_GRC" />
    <path
       inkscape:label="Chua Chu Kang SMC"
       transform="matrix(0.26458333,0,0,0.26458333,-54.82309,172.97269)"
       d="m 215.27148,74.474609 -2.81054,0.140625 -5.33789,1.685547 -3.93555,0.703125 c 0,0 -9.55512,5.900444 -10.11719,6.181641 -0.56207,0.281046 -1.26367,2.25 -1.26367,2.25 l -4.07617,3.511719 -4.21485,4.216796 -7.58789,5.337891 -3.09179,3.091797 -3.23242,2.66992 h -1.9668 l -1.54492,0.98438 -4.35742,-0.42188 -1.82618,1.82617 -3.09179,0.14063 -0.98243,2.95117 -1.26562,0.84375 -0.8418,-1.6875 -3.37304,0.42188 -0.70313,2.52929 -3.37305,1.54688 -2.94922,-0.28125 -2.52929,1.40429 -0.84375,2.95118 -3.79492,2.38867 -1.12305,4.07422 -1.125,4.49804 -0.98242,2.94922 c 0,0 -1.26617,3.0918 -1.96875,3.0918 -0.70259,0 0.84375,2.24805 0.84375,2.24805 l 2.24804,1.54687 -2.24804,0.8418 -1.54492,-0.14063 -1.82813,1.96875 2.10938,1.68555 -0.70313,0.70312 -1.40625,1.82618 -1.68555,0.5625 -0.5625,1.82617 -2.94921,-0.42188 -2.81055,-0.28125 -0.5625,3.37305 -1.26563,1.68555 -2.38867,0.98437 0.5625,3.65235 0.84375,3.37304 -1.82812,3.51368 -0.2793,2.24804 1.26367,3.37305 -1.12305,1.54492 0.41993,2.81055 -0.28125,2.95117 -1.4043,1.9668 -0.14063,2.66992 -2.81054,3.37109 v 1.82813 l -0.14063,1.26367 -0.84179,-0.14063 -1.73438,2.38086 3.08203,0.83985 2.24219,3.08203 2.24219,-1.40039 2.24023,2.24023 3.08203,-3.36133 3.92383,1.1211 1.40039,-1.1211 1.40039,1.1211 1.96289,-1.1211 h 4.76172 l 1.40234,2.80078 -0.84179,3.92383 5.32422,0.2793 2.24218,-0.83984 4.20313,4.48242 0.55859,4.48437 10.08789,7.56446 4.20313,-1.1211 2.52148,-3.36133 3.36133,-2.80273 5.04492,1.40039 4.45508,2.17383 11.52344,-0.14063 2.5293,1.68555 3.08984,1.26563 3.23242,-0.28125 3.93555,-3.79493 2.80859,-0.70312 2.10938,-0.14063 3.23047,-1.54492 17.14453,0.14063 7.16601,-5.90235 2.81055,-0.98242 2.24805,1.54492 1.40429,1.40625 0.84375,5.61914 c 0,0 0.56098,1.54719 1.12305,1.96875 0.56206,0.42153 0.42188,1.12305 0.42188,1.12305 l 0.70312,3.0918 1.68555,1.26367 4.49804,13.06836 7.02539,-7.02539 7.0254,-6.88477 5.48046,5.48047 26.27735,0.41992 0.84179,2.10938 2.24805,1.96679 4.35742,-1.54687 4.07422,0.70313 3.9336,0.14062 1.125,-1.82617 -1.54493,-6.46485 -1.96875,-4.21484 -2.38867,-2.95117 -2.66992,-2.10742 -2.38867,1.125 -3.3711,0.28125 -1.40625,-2.5293 -0.98242,-1.125 -4.07617,-0.14062 c 0,0 -1.96723,0.70309 -2.5293,0.5625 -0.56206,-0.14053 -1.68554,-3.6543 -1.68554,-3.6543 v -2.38867 c 0,-0.8431 -1.26487,-1.40461 -2.81055,-1.82618 -1.54569,-0.42153 -1.9668,-1.26562 -1.9668,-1.26562 l -3.51367,-6.60352 -3.51172,-4.91797 -3.37304,-5.48046 -1.125,-4.63672 -0.28125,-5.0586 -0.41993,-3.09179 v -4.91797 l 1.12305,-1.82617 1.26563,-5.19922 1.12304,-1.125 v -2.38867 l 1.125,-2.38868 v -2.95117 l 0.5625,-2.24805 0.2793,-4.21484 -1.54492,-1.6875 -0.28125,-7.86719 1.26562,-2.95117 c 0,0 2.66852,-4.35742 3.3711,-4.35742 0.70258,0 1.54687,0.42188 1.54687,0.42188 l 3.65235,-1.82618 2.81054,-1.68554 1.26563,-1.54688 -2.81055,-0.8418 -0.14062,-5.05859 -1.26563,-0.28125 0.5625,-6.18359 -0.5625,-0.98438 -0.42187,-3.65234 h 1.96874 l 1.82618,-2.388674 c 0,0 -1.54556,-0.84375 -2.38868,-0.84375 -0.84309,0 -4.91893,-0.421875 -6.18359,-0.421875 -1.26465,0 -5.05859,0.984375 -5.05859,0.984375 0,0 -2.80903,1.966771 -3.3711,1.826172 -0.56206,-0.140523 -5.05859,-1.544922 -5.05859,-1.544922 l -5.62109,-2.951172 -3.6543,-1.265625 -2.38867,1.96875 h -2.95117 L 244.5,94.005859 h -1.6875 l 0.84375,-2.248047 0.84375,-2.810546 c 0,0 -0.9847,-0.701225 -1.40625,-0.982422 -0.42155,-0.281046 -1.40473,-1.545471 -1.9668,-2.248047 -0.56207,-0.702577 -2.24804,0 -2.24804,0 l -1.125,-0.421875 -2.5293,-1.125 0.28125,-3.933594 -2.38867,1.123047 -0.70117,-0.841797 1.54492,-1.40625 -1.4043,-2.107422 c 0,0 -2.53026,-0.703151 -3.79492,-0.84375 -1.26465,-0.140523 -3.23242,1.40625 -3.23242,1.40625 l -3.3711,2.669922 -2.66992,-0.28125 -0.28125,-3.794922 -0.5625,-1.544922 z m -60.84375,27.550781 -0.375,0.52539 -1.1289,0.37695 0.15039,1.27735 1.1289,1.27734 1.12696,0.0762 0.0762,-0.97851 0.82617,-1.20117 -0.37695,-1.20313 z"
       style="fill:#afc6e9;fill-opacity:1;stroke:#ffffff;stroke-width:0.50474;stroke-linecap:butt;stroke-linejoin:miter;stroke-miterlimit:4;stroke-dasharray:none;stroke-opacity:1"
       id="Chua_Chu_Kang_SMC" />
    <path
       inkscape:label="Hong Kah GRC"
       id="Hong_Kah_GRC"
       d="m -5.4498774,238.28447 0.9952064,1.50103 2.5881012,-1.91121 0.99542333,1.19451 1.07505499,-0.35835 0.75652311,-0.0398 0.0398172,1.15469 -0.59724985,0.35835 -0.11945143,0.67689 0.15926858,0.43798 -0.0796343,0.67689 0.11945143,1.51305 1.77709567,-1.20064 1.03818,-0.37104 -0.074414,-0.96377 2.5547849,0.26588 0.1194514,-2.5881 1.1945064,0.2389 0.5176203,1.19451 0.2389028,0.99542 1.4732265,0.55744 0.8759718,-1.27414 0.437986,-1.59268 1.393592,0.11945 1.353778,-1.35377 1.951029,-0.0796 -0.27872,-0.4778 -0.278717,-0.4778 -0.238903,-0.39817 0.358354,-0.43799 0.159266,-0.55744 0.676889,-0.9556 0.915789,0.15927 -0.125918,-3.02211 -1.449961,-1.44996 -3.717846,3.68066 -1.189709,-3.45759 -0.4461434,-0.33461 -0.185891,-0.81793 -0.4089638,-0.81792 -0.2230702,-1.48714 -0.966642,-0.78075 -0.7435691,0.26025 -1.8960994,1.5615 -4.53576845,-0.0372 -0.85510422,0.40896 -0.55767816,0.0372 -0.74357377,0.18589 -1.0409952,1.00382 -0.8551042,0.0744 -1.4871409,-0.78075 -3.0486323,0.0372 -1.1788087,-0.57502 -0.3710358,1.4087 -0.2222077,1.92753 -0.5188317,1.26039 0.8154534,2.89129 z"
       style="fill:#19355c;fill-opacity:1;stroke:#ffffff;stroke-width:0.133546;stroke-linecap:butt;stroke-linejoin:miter;stroke-miterlimit:4;stroke-dasharray:none;stroke-opacity:1" />
    <path
       inkscape:label="Boon Lay SMC"
       id="Boon_Lay_SMC"
       d="m -4.454671,239.7855 2.5881012,-1.91121 0.99542333,1.19451 1.07505499,-0.35835 0.75652311,-0.0398 0.0398172,1.15469 -0.59724985,0.35835 -0.11945143,0.67689 0.15926858,0.43798 -0.0796343,0.67689 0.11945143,1.51305 -0.66926089,0.57804 -2.22415834,-0.0739 -0.2222076,-1.18597 z"
       style="fill:#2c5aa0;fill-opacity:1;stroke:#ffffff;stroke-width:0.133546;stroke-linecap:butt;stroke-linejoin:miter;stroke-miterlimit:4;stroke-dasharray:none;stroke-opacity:1" />
    <path
       inkscape:label="Bukit Gombak SMC"
       id="Bukit_Gombak_SMC"
       d="m 15.334344,237.43636 0.512818,0.89372 0.961811,0.458 1.099214,0.32061 0.732809,0.5496 0.549605,1.05342 1.145014,-0.36641 2.152626,-0.1832 0.82441,-0.0916 0.961813,0.96181 1.236615,-1.41982 -0.82441,-0.91601 0.778608,-0.1374 4.442653,5.17546 0.320606,1.19082 3.068635,0.73281 0.320606,-1.60302 0.0916,-0.82441 -0.320603,-0.68701 -0.0458,-0.73281 0.320604,-0.64121 -0.366406,-0.6412 1.145016,-1.32822 0.137401,-0.50381 -0.77861,-0.96181 -3.114437,-2.15263 -0.87021,-1.32821 -0.366405,-0.68701 -0.366406,-1.60302 -1.221734,-0.17455 -0.297657,0.48318 -1.040765,-0.0372 -1.07797,-0.18603 -1.152901,0.40927 -0.594797,-0.52038 -0.222723,-0.5581 -6.952589,-0.11126 0.125918,3.02211 -0.915789,-0.15927 -0.676889,0.9556 -0.159266,0.55744 -0.358354,0.43799 z"
       style="fill:#afc6e9;fill-opacity:1;stroke:#ffffff;stroke-width:0.133546;stroke-linecap:butt;stroke-linejoin:miter;stroke-miterlimit:4;stroke-dasharray:none;stroke-opacity:1" />
    <path
       inkscape:label="Bukit Batok SMC"
       id="Bukit_Batok_SMC"
       d="m 10.197959,240.34296 0.840145,0.46035 1.465617,0.1832 1.145013,0.36641 0.595408,-0.36641 1.190815,-0.229 1.557219,0.1832 1.465617,0.54961 0.732806,-0.77861 -0.549603,-1.05342 -0.732809,-0.5496 -1.099214,-0.32061 -0.961811,-0.458 -0.512818,-0.89372 -1.951029,0.0796 -1.353778,1.35377 -1.393592,-0.11945 z"
       style="fill:#afc6e9;fill-opacity:1;stroke:#ffffff;stroke-width:0.133546;stroke-linecap:butt;stroke-linejoin:miter;stroke-miterlimit:4;stroke-dasharray:none;stroke-opacity:1" />
    <path
       inkscape:label="Yuhua SMC"
       transform="matrix(0.26458333,0,0,0.26458333,-54.82309,172.97269)"
       d="m 229.49609,248.15625 -0.45117,9.7832 4.35352,0.39649 15.13086,11.76758 c 0,0 2.53514,1.02343 2.85742,1.02343 0.32232,0 0.16211,-3.54492 0.16211,-3.54492 l 7.08984,-6.52539 0.15235,-2.61133 -4.32813,-1.38476 -5.53906,-0.69336 -3.17578,-1.74024 -3.31055,4.81641 -5.56836,-2.10742 -0.90234,-3.76172 -1.95703,-4.51367 z"
       style="fill:#5193e5;fill-opacity:1;stroke:#ffffff;stroke-width:0.50474;stroke-linecap:butt;stroke-linejoin:miter;stroke-miterlimit:4;stroke-dasharray:none;stroke-opacity:1"
       id="Yuhua_SMC" />
    <path
       inkscape:label="Bukit Timah SMC"
       id="Bukit_Timah_SMC"
       d="m 14.121021,250.8129 3.335903,0.81847 2.808002,3.12 0.415999,-0.90133 0.866667,-1.21333 0.312002,0.69333 0.415999,0.624 0.589333,-0.17333 v -1.28267 l 1.144,-0.90133 -0.693333,-0.79734 2.184001,-0.936 1.317334,-0.312 h 0.727998 l 1.04,-1.248 -0.138665,-0.58933 1.525333,0.0347 0.25694,-2.82334 -0.320604,-1.19082 -4.442653,-5.17546 -0.778608,0.1374 0.82441,0.91601 -1.236615,1.41982 -0.961813,-0.96181 -2.977036,0.2748 -1.145016,0.36641 -0.732806,0.77861 -1.465617,-0.54961 -1.557221,-0.1832 -1.190813,0.229 -0.595442,0.3665 -0.04031,0.69092 -1.875854,1.7265 -0.04404,0.99392 0.504995,0.19206 0.667657,0.66714 -1.334802,1.55701 2.298052,1.70481 z"
       style="fill:#19355c;fill-opacity:1;stroke:#ffffff;stroke-width:0.133546;stroke-linecap:butt;stroke-linejoin:miter;stroke-miterlimit:4;stroke-dasharray:none;stroke-opacity:1" />
    <path
       inkscape:label="Ayer Rajah SMC"
       id="Ayer_Rajah_SMC"
       d="m 6.4114144,260.52445 5.0693426,1.37849 1.263756,-1.14257 0.657844,0.27699 -0.06925,0.2943 -0.363545,0.34623 0.08656,0.50204 2.163964,0.51935 2.856431,-0.0173 0.155805,-0.62323 -1.696548,-3.77395 2.163963,-1.47149 1.627302,2.00815 0.08656,-1.29837 0.640535,-0.0346 0.692468,0.72709 1.090636,-0.62322 -0.0173,-0.25967 -2.554999,-2.58128 -2.808004,-3.12 -3.335901,-0.81847 -1.630908,-0.37052 -1.853118,-1.26039 -2.2980487,-0.14831 -0.5932461,3.1135 -2.3724658,3.63286 0.2966243,2.00142 2.1497396,0.88987 -0.518832,0.29611 -1.3342858,-0.37052 z"
       style="fill:#5193e5;fill-opacity:1;stroke:#ffffff;stroke-width:0.133546;stroke-linecap:butt;stroke-linejoin:miter;stroke-miterlimit:4;stroke-dasharray:none;stroke-opacity:1" />
    <path
       inkscape:label="Telok Blangah SMC"
       transform="matrix(0.26458333,0,0,0.26458333,-54.82309,172.97269)"
       d="m 354.74805,360.61719 -0.36719,2.6914 1.71289,2.56836 v 1.83399 l 1.09961,0.61133 0.49023,4.89062 -0.85742,1.83399 -0.73242,8.92773 9.04883,9.29297 3.44336,-0.1543 1.29492,-3.05273 3.60937,0.64648 2.03711,0.92578 4.25782,1.29688 1.68359,1.50586 2.05273,0.78125 3.29493,1.0625 7.54882,0.21289 0.21289,-3.18946 -6.27343,-0.21289 -4.03907,-1.80664 -7.7207,-4.27734 -1.66601,-0.83398 -2.03516,-1.01758 -1.57422,-0.3711 1.85156,-4.25781 3.88672,-2.86914 3.42578,-4.35156 c 0,0 0.64732,-2.03558 1.01758,-2.22071 0.37024,-0.18519 1.48047,-1.85156 1.48047,-1.85156 v -1.94336 c 0,0 -1.4813,-1.20431 -1.85156,-1.29687 -0.37024,-0.0926 -4.99805,-2.77539 -4.99805,-2.77539 l -1.94336,-1.38868 h -8.60742 l -1.20313,-0.83398 z m 48.86914,36.83203 -2.8711,2.01953 -4.14648,1.5957 -1.49023,1.27539 h -1.91407 l 0.53321,2.97852 4.57226,0.74414 2.125,1.80664 4.35938,0.95703 3.08398,-0.53125 0.85156,1.70117 3.9336,1.16993 4.78515,-3.29688 -0.42578,-1.70117 -0.74414,-1.91406 -1.38281,-0.74414 -1.70117,-0.53125 -2.76367,-3.40235 -0.95704,-1.16992 -3.18945,-0.53125 z m -18.92774,4.57226 -2.44531,0.95704 -2.12695,1.59375 -1.27539,-1.27539 -4.57227,0.63867 -0.95703,0.63672 -0.53125,-1.27539 -8.1875,-0.10547 -0.95703,1.70117 4.57226,2.6582 -0.21289,3.08203 2.76563,0.42578 v -1.80664 l 2.23242,1.16797 1.91406,0.85156 0.53125,2.65821 1.91407,0.84961 2.44531,1.16992 0.53125,2.02148 2.44531,1.0625 1.70117,1.48828 2.23438,0.74414 -0.42578,-1.91406 2.6582,0.42578 6.06055,4.35938 0.10547,2.55273 -0.10547,1.27539 -1.59571,-0.10546 5.84961,5.74023 2.44531,-0.74414 0.95704,1.91406 1.70117,0.42578 v 2.23242 h 2.23242 l 0.10547,-3.40234 2.76562,-2.33984 2.23243,-0.74414 3.18945,0.85156 2.76562,-2.33985 -0.32031,-6.27343 0.74414,-0.53125 0.95703,-1.16992 0.10742,-0.95704 2.3379,-0.95703 0.5332,-1.70117 v -4.35937 l -3.50977,-0.42383 c 0,0 -2.33946,1.48828 -2.87109,1.48828 -0.53164,0 -3.08398,-0.74414 -3.08398,-0.74414 l -3.9336,-1.38281 -10.73828,-0.10547 -3.82812,-3.4043 -9.25,-4.57031 z m 31.68555,46.57032 -1.70117,0.32031 c 0,0 0.95656,2.55088 0.53125,2.76367 -0.42531,0.21264 1.27734,2.33984 1.27734,2.33984 l 1.48828,2.01954 2.97657,0.74414 v -2.65821 l -2.23243,-0.84961 -1.27539,-1.48828 z m 34.23828,2.12695 -1.70117,1.80859 -2.12695,1.16797 -1.59571,-0.53125 -1.70117,-0.42578 c 0,0 -1.2761,-0.74278 -1.91406,-0.42383 -0.63796,0.319 -0.10547,2.55078 -0.10547,2.55078 l -1.80859,0.21289 -0.84961,-1.16992 -1.16993,1.27735 0.53126,1.70117 2.23437,1.27539 0.84961,-0.42578 1.48828,-2.65821 c 0,0 1.27658,-1.06334 2.33984,-0.95703 1.06328,0.10621 1.70118,0.74414 1.70118,0.74414 l 0.42578,0.85157 -1.49024,1.27539 0.42578,0.74414 3.40235,-0.95703 1.5957,-1.70118 -0.10742,-3.7207 z m -10.20703,9.7832 -2.23437,1.16797 2.97851,0.85156 0.95703,1.70118 0.31836,2.44531 c 1.06327,1.48857 0.8497,3.18945 1.80664,3.18945 0.95694,0 4.25391,3.82813 4.25391,3.82813 l 1.48828,2.33984 c 0,0 1.16978,-0.10742 1.91406,-0.10742 0.74429,0 1.70117,-0.53125 1.70117,-0.53125 0,0 -1.59461,-0.53084 -1.48828,-1.0625 0.10632,-0.53163 0.10547,-1.5957 0.10547,-1.5957 l 0.42578,-1.91407 2.01953,1.27539 0.42578,-0.53125 -1.27539,-1.80664 c 0,0 -0.74523,-0.31883 -0.85156,-0.74414 -0.10632,-0.42531 -1.48828,-2.33984 -1.48828,-2.33984 l -2.01953,-0.42578 -0.85156,-2.01953 -2.44532,-0.42578 -2.44531,-3.18946 -1.27539,0.42578 z m 14.88477,1.27539 -2.76368,0.74414 1.0625,0.42579 1.27539,3.18945 1.8086,1.48828 0.95703,0.95703 0.10547,2.44531 1.27539,-0.21289 1.70117,-0.74414 -0.10547,-3.50781 -0.10547,-1.70312 -1.16992,-1.0625 -2.12695,-1.70118 z m -26.47461,4.14649 -1.38282,1.27539 0.31836,1.16992 c 0.10632,0.63795 2.02149,1.91406 2.02149,1.91406 l 3.08203,2.33985 1.70117,2.76367 3.08398,2.55273 1.48829,2.65821 1.27734,-0.32032 v 3.18946 c 0,0 2.01953,-0.31887 2.01953,-0.74414 0,-0.42531 0.42578,-2.8711 0.42578,-2.8711 l -2.6582,-1.70117 0.95703,-0.10547 0.21094,-1.80664 -1.38086,-1.27734 -0.21289,-2.01953 1.91406,-1.0625 -0.63867,-1.91407 -2.01953,-0.21289 -0.74414,-0.85156 h -2.12696 l -1.0625,-1.27539 -2.55273,0.31836 -0.84961,-1.59375 z m -21.26563,11.16406 0.21289,3.08399 1.70117,0.42578 0.95704,-2.12696 c 0,0 -0.63915,-0.42489 -1.06446,-0.53125 -0.42531,-0.1062 -1.80664,-0.85156 -1.80664,-0.85156 z m 4.9961,2.23242 -2.65821,3.82813 1.27735,2.55273 1.80664,0.10547 v -2.76367 l 1.91406,0.84961 c 0,0 0.85046,10e-4 0.74414,-0.63672 -0.10632,-0.63798 -0.21252,-1.48964 -0.74414,-1.80859 -0.53163,-0.319 -2.33984,-2.12696 -2.33984,-2.12696 z"
       style="fill:#5193e5;fill-opacity:1;stroke:#ffffff;stroke-width:0.50474;stroke-linecap:butt;stroke-linejoin:miter;stroke-miterlimit:4;stroke-dasharray:none;stroke-opacity:1"
       id="Telok_Blangah_SMC" />
    <path
       inkscape:label="Brickworks GRC"
       id="Brickworks_GRC"
       d="m 34.346144,258.06517 0.407487,-0.34169 0.631082,0.55684 0.334102,0.37122 0.204176,0.35267 0.408348,0.0557 0.371226,-0.53828 0.278418,-0.0742 0.482593,-0.4826 0.334102,0.0557 0.185613,-0.44547 0.278421,-0.0557 0.278419,0.33411 0.445471,0.11136 0.111365,0.31555 0.222737,0.12993 -0.09281,2.33872 0.315542,0.22273 0.426911,0.66821 c 0,0 0.686766,0.31554 0.761013,0.35266 0.07424,0.0371 0.928063,0.66821 0.928063,0.66821 l 0.74245,0.3341 1.317853,0.0742 -0.05568,0.94662 -0.40835,0.0928 0.05568,0.63108 -0.816695,0.12993 -0.185613,0.44547 -0.482595,-0.68677 -1.4849,-1.63339 -0.315542,0.37123 0.464032,0.35266 0.148489,0.51972 0.03712,0.40834 -0.259858,0.25986 -0.185613,-0.0742 0.01857,0.37122 -1.484903,-0.18561 2.245916,2.45009 0.296979,-0.53828 0.42691,-0.3341 0.204174,-0.40835 1.057992,-0.0371 -0.05568,0.38978 0.31554,0.0186 -0.204174,0.5754 -0.389787,0.11137 0.259858,0.37123 1.466342,0.0185 -0.219168,1.07118 h -2.277379 l -0.318329,-0.22065 -2.534726,-0.0997 -0.646994,-0.19379 -0.194302,-0.42064 -0.323495,-0.16175 -0.06461,-3.78579 -0.291455,-0.45269 -0.711583,-0.80873 -0.776698,-0.64751 0.226859,-0.71158 -0.323493,-0.48524 -0.2589,-0.7121 -0.647507,-0.77618 -0.193786,-0.67955 z"
       style="fill:#5193e5;fill-opacity:1;stroke:#ffffff;stroke-width:0.133546;stroke-linecap:butt;stroke-linejoin:miter;stroke-miterlimit:4;stroke-dasharray:none;stroke-opacity:1" />
    <path
       inkscape:label="Ulu Pandan SMC"
       transform="matrix(0.26458333,0,0,0.26458333,-54.82309,172.97269)"
       d="m 321.45508,271.94727 -0.9707,10.66992 -5.76563,-0.13086 0.52344,2.22851 -3.92969,4.7168 -0.64648,1.33203 -4.5879,1.61914 -3.66796,5.01367 0.36718,3.54688 4.03516,0.36719 v -1.22266 l 2.56836,-0.36719 0.12109,-1.46875 5.13672,0.97852 -0.24414,-1.22266 4.1582,0.24414 3.05665,2.20117 1.0996,1.46876 1.95704,0.24414 0.48828,2.68945 -1.83399,0.24414 0.2461,2.32422 h -2.20118 l -0.12304,3.42383 -8.31446,-0.61133 2.19922,1.83398 6.35938,0.61133 3.79101,1.58984 6.23633,4.5254 2.20117,2.44531 3.30274,0.36719 1.54101,-1.29102 -1.47461,-4.8418 4.20899,-3.78711 0.98242,0.91211 2.31445,1.47266 c 0,0 2.38621,0.0703 3.01758,0.0703 0.63138,0 0.63086,-0.42187 0.63086,-0.42187 l 0.77149,-1.05078 1.19335,0.3496 2.45508,0.77149 1.12305,1.19336 2.66602,0.21094 0.34961,1.47265 2.03515,-0.14062 2.24414,-7.57618 7.29688,-6.80468 2.45507,-1.12305 2.24415,-1.05273 0.91211,-2.24414 1.68359,0.35156 0.0703,-2.31641 -0.77148,-1.33203 c 0,0 -3.29754,-0.9117 -3.57813,-0.77148 -0.28061,0.14029 -7.08398,-5.40235 -7.08398,-5.40235 l -6.66602,-4.49023 -8.97851,-3.01563 -9.19141,-3.36718 -6.41602,-2.66797 z"
       style="fill:#5193e5;fill-opacity:1;stroke:#ffffff;stroke-width:0.50474;stroke-linecap:butt;stroke-linejoin:miter;stroke-miterlimit:4;stroke-dasharray:none;stroke-opacity:1"
       id="Ulu_Pandan_SMC" />
    <path
       inkscape:label="Buona Vista SMC"
       id="Buona_Vista_SMC"
       d="m 40.117883,256.72106 -0.04698,0.39097 -0.309285,0.0843 -0.09841,0.50611 -0.323344,0.0843 -0.02016,0.62347 -0.222737,-0.12993 -0.111363,-0.31555 -0.445471,-0.11136 -0.278421,-0.33411 -0.278421,0.0557 -0.185611,0.44547 -0.334103,-0.0557 -0.482594,0.4826 -0.278416,0.0742 -0.371226,0.53828 -0.40835,-0.0557 -0.204174,-0.35267 -0.334103,-0.37122 -0.630843,-0.55673 -0.390157,-1.28106 1.113628,-1.00201 0.259932,0.24133 0.612365,0.38964 0.965317,-0.093 0.204123,-0.27802 0.965314,0.29663 0.29714,0.31574 0.705385,0.0558 0.0925,0.38964 z"
       style="fill:#5193e5;fill-opacity:1;stroke:#ffffff;stroke-width:0.133546;stroke-linecap:butt;stroke-linejoin:miter;stroke-miterlimit:4;stroke-dasharray:none;stroke-opacity:1" />
    <path
       inkscape:label="Pasir Panjang GRC"
       transform="matrix(0.26458333,0,0,0.26458333,-54.82309,172.97269)"
       d="m 310.06641,289.19727 c -0.57515,0.007 -1.22203,0.0776 -1.70313,0.13085 -1.90724,0.21166 -4.02164,1.16733 -4.78125,1.28321 l -8.25391,3.53711 2.61915,3.01367 -4.32422,3.40625 v 4.84766 l -2.22657,0.65429 -1.57226,-2.35742 -1.17969,-2.62109 -3.27539,4.58593 -1.57226,3.40625 9.65624,9.75586 0.0664,0.98243 -4.12305,2.35546 -2.61718,-2.74804 -2.41992,0.13086 -0.32813,4.90625 -6.15039,-7.58985 -4.69727,3.14258 3.91407,7.58203 2.20117,4.76758 2.68945,0.85742 2.69141,5.38086 c 0,0 3.05654,1.5882 3.66797,1.95508 0.61142,0.36699 0.85546,3.79102 0.85546,3.79102 l 7.3379,5.74804 1.95703,0.24414 0.61133,1.4668 4.03515,1.83594 1.58985,1.58789 3.05664,1.10156 1.46679,2.32422 6.23633,3.17773 3.05859,0.73438 1.71094,3.17969 -1.95703,3.54687 -1.83398,0.24414 0.73437,1.3457 c 0,0 1.58899,0.6109 2.07813,0.85547 0.48914,0.24454 5.13672,3.05664 5.13672,3.05664 l 4.1582,2.56836 4.76758,3.30079 c 0,0 1.59127,-0.36719 2.44726,-0.36719 0.85599,0 3.54492,3.05859 3.54492,3.05859 l 2.56836,0.36719 c 0,0 0.97842,-1.10156 1.58985,-1.10156 0.61142,0 1.58984,0.85547 1.58984,0.85547 l 0.12305,2.56835 2.8125,0.49024 1.22265,1.22265 2.68946,1.83399 c 0,0 1.22256,1.10113 1.83398,1.3457 0.61143,0.24454 0.61133,2.8125 0.61133,2.8125 l 7.09375,5.7461 0.73242,-1.22266 1.10156,-2.07813 1.83399,-2.93554 -9.04883,-9.29297 0.73242,-8.92773 0.85742,-1.83399 -0.24609,-3.42383 -0.24414,-1.46679 -1.09961,-0.61133 v -1.83399 l -1.71289,-2.56836 0.36719,-2.6914 -2.44532,-0.73242 -0.73437,-1.58985 -1.22266,-0.61133 L 350.10156,343.375 349,341.66406 l -2.68945,-3.05664 -2.93555,-2.44726 0.85742,-2.68946 -1.22265,-1.83398 -0.97852,-2.69141 -2.44727,-2.93359 -0.73242,-2.56836 -1.83398,-1.83398 -3.30274,-0.36719 -2.20117,-2.44531 -6.23633,-4.5254 -3.79101,-1.58984 -6.35938,-0.61133 -2.19922,-1.83398 8.31446,0.61133 0.12304,-3.42383 h 2.20118 l -0.2461,-2.32422 1.83399,-0.24414 -0.48828,-2.68945 -1.95704,-0.24414 -1.0996,-1.46876 -1.46876,-1.22265 -1.58789,-0.97852 -4.1582,-0.24414 0.24414,1.22266 -5.13672,-0.97852 -0.12109,1.46875 -2.56836,0.36719 v 1.22266 l -4.03516,-0.36719 -0.36718,-3.54688 3.66796,-5.01367 4.5879,-1.61914 c 0.29582,-0.45808 0.90007,-1.07662 0.67382,-1.3125 -0.19587,-0.20421 -0.69829,-0.26064 -1.27343,-0.2539 z m -30.25586,70.81445 c -0.39704,0 -2.1836,0.19726 -2.1836,0.19726 l 0.99219,0.79493 1.0918,0.19921 1.78711,2.48047 1.29101,0.29883 4.36719,1.48828 2.58008,0.89258 0.49609,-0.0977 4.16992,1.88477 4.36719,0.69531 4.4668,2.58008 3.77148,1.29102 c 0,0 0.19786,-1.88672 -0.19922,-1.88672 -0.39704,0 -2.08398,-0.29688 -2.08398,-0.29688 l -2.48242,-1.48828 -1.58789,-1.39062 -4.16797,-2.1836 -1.48828,1.0918 -2.28321,-0.89258 -1.1914,-1.0918 -1.78711,-1.39062 1.78711,-0.79297 -0.39649,-1.19141 -1.88672,-0.0996 -3.07617,-0.79493 0.39649,1.6875 0.0996,1.39063 -4.16993,-0.69531 c 0,0 -1.7857,-1.88672 -1.38867,-1.88672 0.39704,0 1.38923,-0.59407 0.99219,-0.69336 -0.39703,-0.0994 -1.88617,-0.0996 -2.2832,-0.0996 z m 9.02539,76.30078 -4.2793,0.48828 -0.97852,2.08008 v 5.01367 l 0.61133,1.95508 1.10157,4.1582 3.30078,2.32422 c 0,0 7.09332,-8.6e-4 7.33789,0.48828 0.24457,0.48915 8.4375,4.89258 8.4375,4.89258 l 1.22265,2.68945 0.12305,2.44532 3.42383,0.73437 6.96875,1.22266 0.73437,-2.20117 -2.07812,-2.32422 -1.3457,-4.03516 -9.41602,-8.92578 -2.32422,-0.49024 -0.12109,-1.71093 c 0,0 1.71069,0.24394 0.73242,-0.12305 -0.97828,-0.36699 -3.66797,-2.32422 -3.66797,-2.32422 0,0 -1.4667,-1.46562 -2.07812,-1.58789 -0.61142,-0.12246 -1.83399,-1.3457 -1.83399,-1.3457 l -2.20117,-2.20117 z m -33.32422,5.60156 -3.51172,3.08985 -2.94922,0.5625 0.98242,1.68554 1.9668,2.52735 1.9668,1.26367 6.74218,-0.14063 3.23047,-2.24609 3.79297,-0.84375 1.26367,-1.26367 -1.54492,-3.3711 -2.80859,-1.12304 c 0,0 -3.37188,0.70117 -4.07422,0.70117 -0.70234,0 -5.05664,-0.8418 -5.05664,-0.8418 z m 23.60156,1.49024 c -0.3188,0 -1.27539,0.10547 -1.27539,0.10547 l -0.74414,0.84961 -1.00977,0.47851 -0.74414,0.79688 0.10743,1.11523 -0.79688,0.10742 0.53125,3.87891 1.27539,1.2207 1.27344,1.0625 v 1.54102 l 0.42578,0.47851 -0.47852,0.74414 0.32032,0.16016 0.21093,0.0527 2.81641,-2.07226 1.0625,-1.32813 0.37305,-1.11523 -0.37305,-3.93359 -0.58398,-2.125 -1.11524,-1.80665 c 0,0 -0.95659,-0.21093 -1.27539,-0.21093 z m 5.84375,10.04101 c -0.42508,0 -0.74414,0.42578 -0.74414,0.42578 l -0.47656,1.0625 -0.95703,1.75391 -0.63868,2.86914 1.2754,0.47852 2.76367,1.0625 c 0,0 1.75341,0.26555 2.33789,0.53125 0.58446,0.26577 0.90234,0.47851 0.90234,0.47851 l 7.75781,-0.32031 0.58594,-0.84961 0.95508,-0.74414 1.75391,-1.00977 0.90429,-0.37109 -0.58593,-1.9668 -5.36524,-2.60351 c 0,0 -6.05738,0.47976 -6.2168,0.58593 -0.1594,0.10625 -2.28515,-0.85156 -2.28515,-0.85156 0,0 -1.54173,-0.53125 -1.9668,-0.53125 z m -21.63086,2.62696 c -0.35865,0.0474 -0.65738,0.41539 -0.89648,0.45507 -0.3188,0.0531 -1.17066,1.06365 -1.33008,1.43555 -0.1594,0.37194 1.48828,1.32813 1.48828,1.32813 0,0 1.70154,0.58324 1.91406,0.68945 0.21253,0.10624 2.17689,0.47834 2.54883,0.53125 0.37194,0.0533 1.54102,0.10742 1.54102,0.10742 0,0 0.21218,-1.22248 -0.21289,-1.27539 -0.42507,-0.0531 -1.06241,-0.74414 -1.59375,-0.74414 -0.53134,0 -2.55069,-2.12437 -3.08204,-2.44336 -0.1328,-0.0797 -0.2574,-0.0998 -0.37695,-0.084 z m 7.65625,4.86523 c -0.26567,0 -1.0625,0.63672 -1.0625,0.63672 0,0 -0.10547,1.27709 -0.10547,1.5957 0,0.31881 -0.0527,1.64649 -0.0527,1.64649 0,0 -0.3726,0.95629 -0.69141,1.0625 -0.3188,0.10628 1.00977,0.58398 1.00977,0.58398 l 1.32812,-0.0527 0.10742,-1.11524 2.23047,-0.21289 -0.26562,-1.9668 -1.0625,-0.26562 -0.37109,-1.0625 c 0,0 -0.7988,-0.84961 -1.06446,-0.84961 z m -5.84375,0.37109 c -0.21254,-0.0532 -2.44332,0.37305 -2.70898,0.37305 -0.26565,0 0.31722,1.27587 0.21093,1.48828 -0.10625,0.21252 -0.37109,1.38086 -0.37109,1.38086 l 1.00977,1.54102 h 2.49609 l 0.69141,-1.48828 0.47851,-1.22266 -0.0527,-1.11524 -0.69141,-0.79687 c 0,0 -0.84998,-0.10724 -1.0625,-0.16016 z m 36.11719,0.98438 c -0.18597,0 -0.35742,0.0254 -0.35742,0.0254 l -0.47852,1.38281 1.80664,0.63672 -0.21289,-0.16016 0.31836,-0.68945 c 0,0 -0.53047,-0.85009 -0.63672,-1.0625 -0.0531,-0.1062 -0.25348,-0.13281 -0.43945,-0.13281 z m -19.75195,13.3418 c -0.34537,0.007 -0.69141,0.0468 -0.69141,0.17968 0,0.2657 0.10742,2.01953 0.10742,2.01953 l 1.0625,0.79688 0.3711,4.14453 0.16015,6.11133 -1.16992,0.1582 -0.0527,1.11719 -0.90235,0.21094 -0.32031,4.51757 -0.68945,0.79688 0.31836,0.68945 0.63671,1.27539 0.26758,1.70118 0.63672,-0.10547 -0.16016,0.95507 0.79688,0.74415 -0.47656,0.79687 0.95508,0.37305 1.48828,1.64648 2.01953,-1.85937 c 0,0 1.64604,0.37183 1.96484,0.26562 0.31881,-0.1062 0.79723,-0.69133 1.00977,-0.95703 0.21252,-0.2657 0.37296,-1.86011 0.90429,-2.01953 0.53135,-0.1595 1.85974,-1.00895 2.07227,-1.11524 0.21252,-0.10618 0,-1.64648 0,-1.64648 l -0.32031,-2.6582 -1.0625,-0.10547 0.37304,-2.55078 c 0,0 -2.07341,0.053 -2.17968,-0.26563 -0.10625,-0.31861 0.58593,-0.84961 0.58593,-0.84961 v -1.43554 l -1.48828,-0.10547 -0.31836,-1.00977 -1.00976,-1.00976 0.10547,-3.24024 -1.59375,-0.16015 -0.31836,-1.48829 -1.16992,-0.74414 -1.2754,-3.13476 0.0547,-2.01758 c 0,0 -0.34603,-0.0281 -0.6914,-0.0215 z m 46.43945,3.74023 c -0.35522,0 0.32792,1.01935 0.39258,1.11523 h 0.98828 c 0.42508,0 1.85937,-0.1582 1.85937,-0.1582 l -0.37109,-0.9043 c 0,0 -2.4972,-0.0527 -2.86914,-0.0527 z m 0.39258,1.11523 h -0.33985 l 0.3711,0.0527 c 0,0 -0.0283,-0.0482 -0.0312,-0.0527 z m 4.97265,1.54102 c -0.21253,0 -0.79529,0.16016 -1.00781,0.16016 -0.21255,0 0.26563,0.58398 0.26563,0.58398 l 1.2207,1.16992 c 0,0 0.002,-0.79875 0.0547,-1.06445 0.0531,-0.2657 -0.32065,-0.84961 -0.53321,-0.84961 z m -113.75586,0.75781 -6.04101,1.26563 -4.49414,0.98242 -2.95117,1.68555 -3.93164,2.95117 -3.0918,3.08984 -3.93164,2.52735 -2.5293,1.125 0.5625,3.08984 c 2.38796,0.98328 11.51758,1.26367 11.51758,1.26367 0,0 4.77602,1.9668 5.33789,1.9668 0.56188,0 2.94922,-0.28125 2.94922,-0.28125 l 3.0918,-1.4043 8.42773,0.70313 3.79297,0.98242 c 0,0 2.52797,-1.9668 3.08984,-1.9668 0.56188,0 3.65235,-0.70117 3.65235,-0.70117 l 3.23047,0.13867 0.28124,-2.38672 c 0,0 -2.5296,-1.68614 -2.81054,-2.24804 -0.28094,-0.56187 -3.23047,-5.75977 -3.23047,-5.75977 l -0.8418,-3.65039 -3.37109,-0.84375 z m 120.39844,4.55664 -1.48828,0.74414 0.0547,5.20704 0.68945,0.42382 v 1.70118 l 1.0625,0.0527 0.10742,1.85937 1.16797,0.2129 -0.31836,1.85937 1.38086,-0.0527 2.12696,1.27539 1.75195,1.00976 2.23242,1.32813 1.11523,1.22265 3.0293,0.31836 0.74414,0.47852 1.48633,0.21094 0.21289,-1.69922 -1.2207,-1.59375 -2.81641,-2.33789 -1.9668,-2.125 -1.22265,-2.8711 -2.01758,-2.17773 -2.07227,-1.48828 z m -25.82226,2.92188 -4.03907,0.42578 -0.0527,1.38086 c 0,0 1.85998,0.21289 2.81641,0.21289 0.9564,0 0.47689,0.58343 0.68945,0.63672 0.21253,0.0531 1.64844,0.95703 1.64844,0.95703 l 0.1582,0.58398 c 0,0 1.00959,0.47852 2.07227,0.47852 l -0.26563,-3.61328 -1.11523,-0.42578 z m -93.03125,30.58984 0.98242,2.38672 -2.38672,-0.56055 1.68555,3.93164 -2.38868,1.68555 -4.63476,1.125 -0.84375,-1.125 -2.24805,-0.14062 0.28125,2.38867 0.98438,0.84179 0.27929,3.37305 0.98438,5.05664 2.80859,-2.10742 2.95117,-0.42187 3.08985,-2.94922 3.65234,0.14062 1.26367,-1.12304 c 0,0 1.26383,0.56183 1.4043,0 0.14047,-0.56191 1.54492,-4.77735 1.54492,-4.77735 l 2.81055,-1.12305 1.26367,-2.66992 -2.5293,-1.26367 -1.54492,-0.8418 -5.33789,-0.28125 -1.82617,-1.125 z m 15.59179,26.26758 -6.88281,2.66797 0.14063,3.23047 h 3.08984 l 1.54492,2.10742 0.84375,2.94922 0.98242,1.68554 2.10742,2.24805 0.70118,1.54492 2.38867,-1.26367 2.66992,1.82617 1.4043,0.42188 2.52734,-1.26563 0.14063,-2.52734 c 0,0 0.14062,-3.37173 0.14062,-3.93359 0,-0.56191 1.4043,-3.51172 1.4043,-3.51172 l 2.38867,-0.28125 v -1.54492 l -2.5293,-1.9668 -2.38672,-0.2793 -6.74218,0.56055 z m 16.71485,18.11914 -0.8418,1.68555 1.12305,2.38867 0.70312,-2.66992 z m -1.68555,7.30469 -1.9668,0.84375 -0.56054,3.23047 1.54492,1.40429 1.40429,-0.70312 -0.14062,-2.2461 0.98438,-0.84374 z"
       style="fill:#5193e5;fill-opacity:1;stroke:#ffffff;stroke-width:0.50474;stroke-linecap:butt;stroke-linejoin:miter;stroke-miterlimit:4;stroke-dasharray:none;stroke-opacity:1"
       id="Pasir_Panjang_GRC" />
    <path
       inkscape:label="Bukit Panjang SMC"
       sodipodi:nodetypes="csccccscccccccccccccccccccccccccccccccccccccccccccccccccccccccccccccccccsccccccccccccccccccccccccccccccccccccccccccccccccccccccccccccccccccccccccccccccccccc"
       id="Bukit_Panjang_SMC"
       d="m 21.169687,198.81194 c 0,0 -1.08408,-0.75249 -0.542041,-0.37624 0.542041,0.37624 0.711801,-0.55003 0.711801,-0.55003 l 0.355899,-0.45296 0.517673,-0.0971 0.258836,-0.77651 c 0,0 0.29119,-0.64709 0.420609,-0.64709 0.129418,0 1.067699,0.0324 1.067699,0.0324 l 0.258837,-0.87357 0.776507,-0.32355 c 0,0 0.09707,-0.22648 0.22648,-0.25884 0.129419,-0.0324 0.388255,0.32355 0.388255,0.32355 l 0.226484,0.25884 0.323543,1.1324 2.135399,1.74715 1.035344,-0.77651 0.517673,-1.00299 0.841219,0.45296 0.970634,0.51768 2.394233,-1.81186 1.941272,-0.87357 2.717779,-0.80886 4.400216,-2.58836 1.100053,0.0323 0.06471,2.87955 -0.258836,0.19413 -0.06471,1.22947 -0.388255,0.32355 -0.679445,0.3559 -0.841216,0.7765 1.100053,0.87358 1.100052,-0.12942 1.908919,0.51767 0.323546,1.0677 -0.323546,0.38825 -0.420608,0.0324 -0.388255,0.84122 -0.452964,0.48531 -0.323546,0.61474 -1.197115,0.0971 -0.808863,0.55003 -0.744157,0.55003 -0.161771,0.90592 -0.970635,0.12942 -0.7118,-0.74415 -0.614736,-0.16178 -0.7118,0.19413 -0.647089,1.0677 0.873572,1.0677 0.647089,0.48532 -0.517671,0.67944 0.226481,0.93828 0.129418,0.84122 0.905926,1.03535 1.585372,4.23844 0.517673,0.29119 -0.614735,1.0677 -0.323546,0.7118 0.873572,0.22648 0.388253,0.90593 0.905928,1.19711 2.232461,8.63866 0.744154,0.32355 0.452964,-0.35591 0.194127,0.51768 -0.582382,0.16177 -0.03236,0.58238 1.294183,1.0677 0.161772,-0.80886 0.420608,0.32354 0.429873,-0.27354 -0.20339,-0.50302 c 0,0 0.129418,-0.22648 0.258834,-0.22648 0.129418,0 0.679447,0.12942 0.679447,0.12942 l -0.129418,0.7118 -0.226483,0.51767 0.226483,0.3559 0.452961,0.3559 -0.06471,0.93828 -0.582379,0.42061 -0.679445,0.7118 -0.06471,-0.19413 0.161771,-0.48531 -0.323545,-0.0971 -0.711798,0.42061 -0.582383,0.29119 -0.06471,1.00299 -0.452964,-0.32354 -0.679445,-0.12942 -0.0647,-0.51763 0.64709,-0.0324 0.420609,-0.55002 0.64709,-0.22649 0.258836,-0.7765 -0.808863,-0.51768 -0.355899,-0.0324 -0.323545,-0.0324 -0.517673,0.58239 -4.691405,7.50624 -0.09706,0.93828 -0.905926,0.77651 -0.323545,1.00299 -0.161773,1.0677 -0.841217,0.19413 -1.844208,-1.90892 -1.132408,-0.48532 -1.392084,0.32145 0.137401,-0.50381 -0.77861,-0.96181 -3.114437,-2.15263 -1.236615,-2.01522 -0.366406,-1.60302 -1.221735,-0.17455 -0.408763,-1.71049 -0.520899,-1.11517 -0.632002,-0.78083 -0.706416,-0.55759 -0.632002,0.29765 -0.891937,0.0744 -0.372071,-0.66921 -0.259932,-0.29766 -1.078486,-0.0372 -0.663931,0.10863 -0.451246,-0.92667 -0.03407,-0.82047 -0.873572,-0.32355 -0.323545,-0.3559 -0.962476,-1.69731 -1.821593,-2.75125 -0.297656,-1.2268 -0.07441,-1.33842 -0.111107,-0.81803 v -1.30122 l 0.297141,-0.48317 0.334864,-1.37563 0.297138,-0.29765 v -0.63201 l 0.297656,-0.632 v -0.78083 l 0.148828,-0.5948 0.0739,-1.11517 -0.40876,-0.44649 -0.07441,-2.08152 0.334862,-0.78084 0.571233,-0.97469 c 0.316472,-0.67814 0.538612,-0.21222 0.859383,-0.0988 l 0.836948,-0.45097 0.743622,-0.44597 0.334865,-0.40927 -0.743625,-0.22273 -0.03721,-1.33842 -0.334864,-0.0744 0.148828,-1.63608 -0.260448,-1.2268 h 0.520896 z"
       style="fill:#afc6e9;fill-opacity:1;stroke:#ffffff;stroke-width:0.133546;stroke-linecap:butt;stroke-linejoin:miter;stroke-miterlimit:4;stroke-dasharray:none;stroke-opacity:1" />
    <path
       inkscape:label="Leng Kee SMC"
       id="Leng_Kee_SMC"
       d="m 38.762868,265.0181 1.484902,0.18561 -0.01857,-0.37122 0.185613,0.0742 0.259858,-0.25986 -0.185608,-0.92806 -0.464031,-0.35266 0.315542,-0.37123 1.4849,1.63339 0.482595,0.68677 0.185613,-0.44547 0.816694,-0.12993 -0.05568,-0.63108 0.40835,-0.0928 0.05568,-0.94662 2.282447,-5.3e-4 v 0.5617 l 0.954881,-0.0562 0.140425,0.39318 0.617863,-0.0281 0.617866,-0.28085 0.674034,0.16851 -0.11234,0.64595 0.617866,0.0842 0.168508,1.20765 -2.948898,-0.28085 -0.11234,1.17956 -0.645951,-0.0562 v -0.25276 l -1.235728,-0.0281 -0.05617,0.64595 -0.337018,-0.0281 0.04276,0.69096 -1.466342,-0.0185 -0.259858,-0.37123 0.389789,-0.11137 0.204174,-0.5754 -0.315542,-0.0186 0.05568,-0.38978 -1.057992,0.0371 -0.204174,0.40835 -0.426911,0.3341 -0.296979,0.53828 z"
       style="fill:#5193e5;fill-opacity:1;stroke:#ffffff;stroke-width:0.133546;stroke-linecap:butt;stroke-linejoin:miter;stroke-miterlimit:4;stroke-dasharray:none;stroke-opacity:1" />
    <path
       inkscape:label="Bukit Merah SMC"
       id="Bukit_Merah_SMC"
       d="m 44.167765,268.70638 2.326473,1.44487 0.152885,-0.81977 c 0,0 0.252761,-0.0281 0.252761,-0.14043 0,-0.11234 0.196594,-0.50552 0.196594,-0.50552 l 1.039135,-0.95488 0.02808,-0.73021 -0.730205,-0.11234 v -1.37615 l -0.702116,-0.0282 -0.11234,1.17956 -0.645951,-0.0562 v -0.25276 l -1.235728,-0.0281 -0.05617,0.64595 -0.337015,-0.0281 0.04276,0.69109 z"
       style="fill:#5193e5;fill-opacity:1;stroke:#ffffff;stroke-width:0.133546;stroke-linecap:butt;stroke-linejoin:miter;stroke-miterlimit:4;stroke-dasharray:none;stroke-opacity:1" />
    <path
       inkscape:label="Tanglin SMC"
       id="Tanglin_SMC"
       d="m 43.968701,232.87981 11.083734,7.09909 c 0,0 0.458004,-0.2748 0.641207,-0.2748 0.183203,0 0.137401,2.29002 0.137401,2.29002 l -0.82441,0.54961 0.458007,0.59541 -0.0916,3.06863 0.687009,0.22901 0.1832,1.23661 0.961813,0.82441 0.274802,1.05341 0.137403,2.42743 1.145014,1.37402 0.0458,0.96181 0.458007,0.87021 -0.870212,-0.0458 -1.236615,0.32061 -1.832022,0.5496 -1.007611,0.87021 -0.732808,0.68701 -0.183203,0.73281 -0.137403,0.59541 h -0.82441 l -0.961811,-0.73281 -0.732808,0.458 -0.961811,0.54961 -1.007613,-0.229 -0.229002,0.687 -1.46562,0.91602 -0.595405,0.77861 -0.0458,0.87021 -0.440758,0.87644 -2.282447,5.3e-4 -1.317853,-0.0742 -0.74245,-0.3341 -1.689076,-1.02086 -0.42691,-0.66821 -0.315542,-0.22273 0.112969,-2.96229 0.323345,-0.0843 0.09841,-0.50611 0.309284,-0.0843 0.640744,-2.3955 1.930633,-1.8004 1.243336,-0.57568 0.241329,-0.59376 0.445449,0.093 0.0186,-0.61288 -0.204121,-0.35243 -1.105181,-0.31557 -1.715836,-1.31792 -1.763717,-1.18804 -6.50503,-2.39469 0.320667,-1.60302 0.0916,-0.82441 -0.320603,-0.68701 -0.0458,-0.73281 0.320604,-0.64121 -0.366406,-0.6412 1.145016,-1.32822 1.392087,-0.32158 1.132409,0.48532 1.844206,1.90892 0.841217,-0.19413 0.161774,-1.0677 0.323546,-1.00299 0.905925,-0.77651 0.09706,-0.93828 z"
       style="fill:#19355c;fill-opacity:1;stroke:#ffffff;stroke-width:0.133546;stroke-linecap:butt;stroke-linejoin:miter;stroke-miterlimit:4;stroke-dasharray:none;stroke-opacity:1" />
    <path
       inkscape:label="Tiong Bahru GRC"
       id="Tiong_Bahru_GRC"
       d="m 49.519376,277.87791 1.465432,-0.5761 -0.362149,-1.08645 -0.482864,-1.17698 2.172893,-1.56931 -0.875194,-0.90538 -0.875194,-0.72429 0.905372,-0.93556 1.871104,1.08645 1.237343,0.36215 0.99591,-0.48286 1.05627,-0.54323 -0.03018,-0.33197 -0.573405,-0.99591 -1.539131,-0.81483 -0.301792,-0.60359 -0.33197,-0.51304 -0.211254,-0.87519 -2.353969,0.12071 -0.09054,-0.36215 H 49.47585 v -0.5734 l 0.392327,0.0302 -0.187907,-0.64251 -2.246789,-0.2527 v 1.37615 l 0.730205,0.11234 -0.02808,0.73021 -1.039135,0.95488 -0.449355,0.64595 -0.152887,0.81977 2e-6,0.51418 -0.660942,1.07746 -0.906404,1.15135 -1.028362,0.75912 -0.489891,1.12655 0.416512,0.0982 3.022036,1.6216 1.068671,0.47801 1.659845,0.0563 z"
       style="fill:#afc6e9;fill-opacity:1;stroke:#ffffff;stroke-width:0.133546;stroke-linecap:butt;stroke-linejoin:miter;stroke-miterlimit:4;stroke-dasharray:none;stroke-opacity:1" />
    <path
       inkscape:label="Kim Seng SMC"
       id="Kim_Seng_SMC"
       d="m 49.680269,265.76467 0.187907,0.64251 -0.392327,-0.0302 v 0.5734 h 1.720207 l 0.09054,0.36215 2.353968,-0.12071 0.181079,-0.78466 -0.120717,-0.63376 -0.301791,-0.30179 -0.150897,-0.66394 -2.535042,-0.0905 -0.181076,0.78466 -0.892452,-0.14612 z"
       style="fill:#5193e5;fill-opacity:1;stroke:#ffffff;stroke-width:0.133546;stroke-linecap:butt;stroke-linejoin:miter;stroke-miterlimit:4;stroke-dasharray:none;stroke-opacity:1;filter:url(#filter1128)" />
    <path
       inkscape:label="Sembawang GRC"
       transform="matrix(0.26458333,0,0,0.26458333,-54.82309,172.97269)"
       d="m 365.75391,41.208984 -6.23633,2.691407 -3.91406,-0.246094 -2.56641,3.914062 -2.44727,0.244141 -2.68945,1.222656 -16.38672,10.761719 -12.10547,10.150391 -4.52539,1.710937 -2.07812,3.302735 -4.2793,0.365234 -3.42578,1.345703 -0.73242,2.691406 -2.69141,2.933594 3.17969,1.222656 1.22265,4.28125 8.07227,6.603516 3.91211,-2.935547 1.95703,-3.791016 6.84766,3.667969 9.04883,-6.847656 7.33789,-3.300781 10.27148,-3.058594 16.63086,-9.78125 4.1582,0.121094 0.24414,10.882812 -0.97851,0.734375 -0.24414,4.646485 -4.03516,2.568359 -3.17969,2.935547 4.15625,3.300781 4.15821,-0.488281 7.21484,1.957031 1.22266,4.035156 -1.22266,1.466799 -1.58984,0.12304 -1.4668,3.17969 -1.71289,1.83399 -1.22266,2.32226 -4.52343,0.36719 -5.8711,4.1582 -0.61133,3.42383 -3.66796,0.48828 -2.68946,-2.8125 -2.32422,-0.61133 -2.68945,0.73438 -2.44531,4.03516 3.30078,4.03515 2.44531,1.83399 -1.95703,2.56836 1.3457,6.72656 3.42383,3.91211 5.99219,16.01953 1.95703,1.10156 -2.32422,4.03516 -1.22265,2.68945 3.30273,0.85742 4.03516,1.09961 c 0,0 1.34484,0.48906 1.83398,0.61133 0.48914,0.12246 3.54687,0.24414 3.54687,0.24414 l 3.54493,-0.97852 1.95703,-2.5664 2.07812,-5.8711 7.58203,-13.69531 3.42383,-18.58789 0.73438,-2.93359 c 0,0 6.6e-4,-1.58985 0.73437,-1.58985 0.73371,0 2.20117,0.36719 2.20117,0.36719 l 3.54493,2.8125 3.05859,3.05664 6.72461,-0.61133 0.36719,4.03516 -1.10157,1.83398 -1.34375,1.58985 3.30079,2.44531 2.32421,-0.36719 3.30079,-1.71093 2.44531,0.12109 -1.95508,5.01367 -0.36719,2.93555 c 0,0 0.85657,1.22274 1.34571,0.61133 0.48913,-0.61142 6.96875,-2.8125 6.96875,-2.8125 l 7.09375,-2.56836 3.54492,-1.71094 3.66992,-3.54688 3.05664,-0.36718 3.66797,-3.30078 0.12305,-3.30274 1.58984,-3.05664 3.17969,2.32422 2.32226,-0.24609 8.4375,-12.59375 -9.41601,-13.207035 -3.91211,-3.546875 -1.46875,-3.179688 -1.09961,-5.86914 -2.56836,-4.158203 h -5.50195 l -1.83399,2.935547 -6.11523,-1.101563 2.32422,3.791016 -3.79102,-4.035157 0.36719,-3.912109 0.48828,-4.525391 2.44531,6.236329 3.17969,-0.367188 c 0,0 0.24404,-1.466797 0.85547,-1.466797 0.61142,0 3.54687,-1.345703 3.54687,-1.345703 l 1.10157,-0.855469 -2.20118,-4.402343 -2.20117,-2.935547 -3.91406,-1.466797 -3.17969,-2.689453 -5.25781,-3.791016 -3.17969,-0.246094 -0.97851,-1.955078 -5.99219,-3.791015 -2.9336,-0.244141 -3.42382,6.847656 -1.71289,-0.367187 3.79101,-7.09375 -2.44531,-2.201172 -9.7832,-4.646485 -2.93555,6.726563 -4.2793,4.402344 -1.58984,0.855469 2.6914,-5.501954 -0.97851,-2.447265 -2.56836,-0.488281 -3.91406,4.279296 -2.9336,-0.855468 5.7461,-5.869141 2.20117,-1.589844 -3.05664,-1.833984 -5.01367,-1.101563 -7.33789,0.244141 -5.50196,0.857422 z m 87.18945,34.484375 -1.22266,1.345703 1.95508,3.423829 2.20117,3.179687 0.73438,4.892578 0.97851,2.322266 2.68946,2.078125 1.71289,0.490234 -0.24414,2.445313 1.95507,1.345703 2.44727,0.244141 0.12109,-2.078126 -1.22265,-3.423828 -4.40235,-6.238281 -1.58984,-3.056641 -2.56836,-4.158203 z"
       style="fill:#2c5aa0;fill-opacity:1;stroke:#ffffff;stroke-width:0.50474;stroke-linecap:butt;stroke-linejoin:miter;stroke-miterlimit:4;stroke-dasharray:none;stroke-opacity:1"
       id="Sembawang_GRC" />
    <path
       inkscape:label="Tanjong Pagar SMC"
       id="Tanjong_Pagar_SMC"
       d="m 50.984808,277.30181 1.080174,-0.22943 1.152533,-1.00382 2.974277,0.26025 0.817927,-0.92946 0.70639,-0.48332 -0.148714,-1.33843 -0.22307,-0.78074 0.260249,-0.5205 0.669213,-0.78075 -0.03718,-0.74357 -0.446143,-0.48332 -0.148712,-0.44614 -0.780748,-0.40896 -0.520499,-0.14872 -0.44614,-0.70639 -0.594858,-0.3346 -0.813927,0.95973 v 0 l 1.539132,0.81483 0.573405,0.99591 0.03018,0.33197 -2.05218,1.02609 -1.237345,-0.36215 -1.871104,-1.08645 -0.90537,0.93556 0.875194,0.72429 0.875194,0.90538 -2.172893,1.56931 0.482862,1.17698 z"
       style="fill:#2c5aa0;fill-opacity:1;stroke:#ffffff;stroke-width:0.133546;stroke-linecap:butt;stroke-linejoin:miter;stroke-miterlimit:4;stroke-dasharray:none;stroke-opacity:1" />
    <path
       inkscape:label="Cairnhill SMC"
       id="Cairnhill_SMC"
       d="m 53.248236,264.80767 0.973098,0.10735 0.297428,1.041 1.710209,0.48332 0.855104,-0.74357 1.375603,0.11153 0.48332,0.63204 0.70639,-0.26025 1.189712,-1.71021 0.185891,-0.59485 -0.594855,-0.37179 -1.003818,-1.18971 0.892283,-0.22307 1.078174,-0.70639 0.223073,-1.82175 1.152531,-1.74738 0.557678,-1.11536 -0.48332,-0.44614 -0.111535,-0.89228 -0.185894,-0.63204 -1.152533,-1.15253 -0.89228,0.0744 -0.334608,0.3346 -0.371785,0.37179 -0.532016,0.82834 -0.870212,-0.0458 -3.068637,0.87021 -1.740419,1.55722 -0.320606,1.32822 h -0.82441 l -0.961811,-0.73281 -1.694619,1.00761 -1.007613,-0.229 -0.229002,0.687 -1.46562,0.91602 -0.595405,0.77861 -0.0458,0.87021 -0.440761,0.87644 v 0.5617 l 0.954881,-0.0562 0.140425,0.39318 0.617863,-0.0281 0.617865,-0.28085 0.674034,0.16851 -0.112339,0.64595 0.617865,0.0842 0.1279,0.79871 0.892453,0.14612 0.181075,-0.78466 z"
       style="fill:#5193e5;fill-opacity:1;stroke:#ffffff;stroke-width:0.133546;stroke-linecap:butt;stroke-linejoin:miter;stroke-miterlimit:4;stroke-dasharray:none;stroke-opacity:1" />
    <path
       inkscape:label="Moulmein SMC"
       sodipodi:nodetypes="ccccccccccccccccccccccccccccc"
       transform="matrix(0.26458333,0,0,0.26458333,-54.82309,172.97269)"
       d="m 441.22266,283.5625 -15.62088,-0.98454 0.10538,1.23678 -1.17729,0.253 -1.11581,1.38148 c -0.0841,-0.31396 0.69141,2.65365 1.03711,3.98047 l 0.51953,9.17578 4.32813,5.19336 0.17383,3.63476 1.73046,3.28907 2.01172,-3.13086 2.66993,-2.66992 3.37109,-0.28126 4.35547,4.35547 0.70312,2.38868 0.42188,3.37304 1.82617,1.68555 6.32422,-8.71094 -8.43164,-6.88476 5.05859,-3.93555 1.9668,-2.10742 -2.24805,-1.125 -1.4043,1.6875 -4.77734,0.5625 -0.5625,-2.39063 5.48047,-5.61914 -0.42187,-2.24804 -1.82618,-1.40626 z"
       style="fill:#5193e5;fill-opacity:1;stroke:#ffffff;stroke-width:0.50474;stroke-linecap:butt;stroke-linejoin:miter;stroke-miterlimit:4;stroke-dasharray:none;stroke-opacity:1"
       id="Moulmein_SMC" />
    <path
       inkscape:label="Whampoa SMC"
       id="Whampoa_SMC"
       d="m 64.631114,250.9731 0.641035,-0.64938 0.708594,0.41144 0.571447,-0.68574 -0.64002,-0.27429 0.731452,-1.02861 0.160004,-0.93717 -0.228579,-0.32001 -0.548587,0.11429 -0.731454,0.25144 -0.52573,0.41144 -0.822883,-0.0914 -0.356042,0.38164 0.11162,0.59479 -1.450041,1.48673 0.148828,0.63252 1.264005,-0.14883 0.371554,-0.44648 z"
       style="fill:#afc6e9;fill-opacity:1;stroke:#ffffff;stroke-width:0.133546;stroke-linecap:butt;stroke-linejoin:miter;stroke-miterlimit:4;stroke-dasharray:none;stroke-opacity:1" />
    <path
       inkscape:label="Toa Payoh GRC"
       id="Toa_Payoh_GRC"
       d="m 63.94639,248.17511 -0.571444,-0.64005 0.04572,-0.84574 0.548589,-0.43431 v -1.07431 l -2.034349,-1.7372 0.685736,-0.41144 v -1.44005 l -0.98289,0.0914 -0.914312,-0.29715 -2.262931,0.0686 -0.411441,-0.22858 -0.251436,-0.18286 -1.211469,-0.11429 -0.228578,0.52573 -0.526537,0.53926 -0.824413,0.54961 0.458007,0.59541 -0.0916,3.06863 0.687009,0.22901 0.1832,1.23661 0.961961,0.82441 0.295225,-0.36552 0.311491,-0.0669 -0.02788,-0.32723 4.133024,0.26049 1.190106,0.18603 0.483175,0.37212 z"
       style="fill:#19355c;fill-opacity:1;stroke:#ffffff;stroke-width:0.133546;stroke-linecap:butt;stroke-linejoin:miter;stroke-miterlimit:4;stroke-dasharray:none;stroke-opacity:1" />
    <path
       inkscape:label="Kim Keat SMC"
       id="Kim_Keat_SMC"
       d="m 63.94639,248.17511 0.822884,0.0914 0.525729,-0.41144 1.280041,-0.36573 0.251439,-2.65151 -0.297151,-0.4343 -0.06857,-0.48002 -1.028603,-0.89145 h -2.811515 l -0.685736,0.41144 2.034349,1.7372 v 1.07431 l -0.54859,0.43431 -0.04572,0.84574 z"
       style="fill:#2c5aa0;fill-opacity:1;stroke:#ffffff;stroke-width:0.133546;stroke-linecap:butt;stroke-linejoin:miter;stroke-miterlimit:4;stroke-dasharray:none;stroke-opacity:1" />
    <path
       inkscape:label="Kallang SMC"
       id="Kallang_SMC"
       d="m 65.003184,254.39356 0.543261,0.34172 0.937173,1.23433 2.171496,-2.74295 0.548589,-0.0229 -0.182864,-0.52573 -1.737198,-1.21146 2.262931,-2.78866 -2.262931,-0.93718 -0.480015,0.0686 -0.160004,0.93717 -0.731454,1.02861 0.640022,0.27429 -0.571447,0.68574 -0.708594,-0.41144 -0.641035,0.64938 -0.520383,0.55758 -1.338419,1.04128 z"
       style="fill:#5193e5;fill-opacity:1;stroke:#ffffff;stroke-width:0.133546;stroke-linecap:butt;stroke-linejoin:miter;stroke-miterlimit:4;stroke-dasharray:none;stroke-opacity:1" />
    <path
       inkscape:label="Nee Soon South SMC"
       sodipodi:nodetypes="ccccccccccccccccccccccccccccccccccccccccccccccccccccccccccccccc"
       id="Nee_Soon_South_SMC"
       d="m 45.643108,225.66539 5.643491,-0.0302 0.09054,0.5734 0.724297,0.87519 0.513046,-0.0302 0.66394,-0.84501 0.875194,-0.33197 0.452686,-0.24143 0.513043,0.27161 0.211254,0.66394 1.056269,-0.1509 -0.06036,-2.11254 -0.935551,-1.11662 1.750386,-1.2977 0.271613,-0.78466 -0.09054,-1.26752 -1.116626,-2.89719 -0.603581,-0.21126 0.150895,-0.81483 0.27161,-1.75039 0.181076,-0.5734 0.935551,-0.0604 1.690031,0.42251 1.448596,-0.45269 2.655761,-3.07827 1.871101,-1.59949 0.33197,-1.84092 0.211254,-1.32788 0.379698,-0.71795 -0.614431,0.0651 -0.841293,-0.61495 -0.420645,0.80874 -0.03256,0.87385 -0.970484,0.87333 -0.808736,0.0971 -0.970999,0.93844 -0.937927,0.45269 -3.413845,1.29776 -0.662911,-0.0358 0.09715,-0.7767 0.517281,-1.32653 -0.646988,-0.032 -0.873334,0.45268 -0.614947,0.0971 -0.873334,-0.64699 0.355534,-0.42064 0.291457,-0.48524 -0.09715,-1.06764 -1.779219,0.16175 -0.809252,-0.80874 -0.93793,-0.74414 c -0.323507,-0.15061 -0.82237,-1.00263 -0.776692,0.3235 l -0.37229,1.50684 -0.727903,4.18738 -2.006079,3.62355 -0.549836,1.5534 -0.517797,0.67902 -0.937929,0.2589 -1.423684,-0.22634 -1.06781,-0.29112 0.388255,0.90593 0.905928,1.19711 z"
       style="fill:#5193e5;fill-opacity:1;stroke:#ffffff;stroke-width:0.133546;stroke-linecap:butt;stroke-linejoin:miter;stroke-miterlimit:4;stroke-dasharray:none;stroke-opacity:1" />
    <path
       inkscape:label="Kebun Baru SMC"
       sodipodi:nodetypes="cccccccccccccccccccccccccccccccccccccccsccccc"
       id="Kebun_Baru_SMC"
       d="m 49.90848,230.27253 -0.0403,0.70437 1.38824,-0.45268 3.108447,0.51304 2.112536,0.66394 0.241432,-0.81483 0.362149,-0.87519 -0.241432,-0.51305 -0.362149,0.0302 -0.03018,-0.5734 -0.603581,-0.24144 -0.603583,-0.78465 0.362151,-0.63376 0.784656,-0.87524 -1.056269,0.1509 -0.211254,-0.66394 -0.513043,-0.27161 -0.452686,0.24143 -0.875194,0.33197 -0.66394,0.84501 -0.513046,0.0302 -0.724297,-0.87519 -0.09054,-0.5734 -5.643491,0.0302 0.188708,0.78936 0.744157,0.32355 0.452964,-0.35591 0.194125,0.51768 -0.582383,0.16177 -0.03236,0.58238 1.294183,1.0677 0.161771,-0.80886 0.420608,0.32354 0.429877,-0.27356 c 0.07517,0.1017 -0.02005,-0.25495 -0.203393,-0.503 v 0 0 0 0 c 0.825375,-0.3475 0.880952,-0.17804 0.935141,-0.04 0.06616,0.16851 0.01181,0.37901 -0.126275,0.65471 l -0.226483,0.51767 0.226483,0.3559 0.452961,0.3559 z"
       style="fill:#2c5aa0;fill-opacity:1;stroke:#ffffff;stroke-width:0.133546;stroke-linecap:butt;stroke-linejoin:miter;stroke-miterlimit:4;stroke-dasharray:none;stroke-opacity:1" />
    <path
       inkscape:label="Thomson SMC"
       id="Thomson_SMC"
       d="m 55.052432,239.9789 v 0 l 0.84555,-0.37443 -0.06694,2.38965 0.526539,-0.53926 0.228576,-0.52573 1.211469,0.11429 0.662876,0.41144 2.262931,-0.0686 0.914313,0.29715 0.98289,-0.0914 3.035133,-0.036 -0.438105,-1.27449 -1.354142,-4.22174 -3.186219,-3.26587 -1.75242,-0.47793 -2.447486,-0.6148 -2.112536,-0.66394 -3.108447,-0.51304 -1.388239,0.45268 0.0403,-0.70437 -0.58238,0.42061 -0.679444,0.7118 -0.06471,-0.19413 0.161771,-0.48531 -0.323545,-0.0971 -0.711798,0.42061 -0.582383,0.29119 -0.06471,1.00299 -0.452964,-0.32354 -0.679444,-0.12942 -0.0647,-0.51763 0.647092,-0.0324 0.420608,-0.55002 0.647089,-0.22649 0.258836,-0.7765 -0.808863,-0.51768 -0.679444,-0.0648 -0.517674,0.58239 -1.863113,3.09271 z"
       style="fill:#5193e5;fill-opacity:1;stroke:#ffffff;stroke-width:0.133546;stroke-linecap:butt;stroke-linejoin:miter;stroke-miterlimit:4;stroke-dasharray:none;stroke-opacity:1" />
    <path
       inkscape:label="Ang Mo Kio SMC"
       sodipodi:nodetypes="ccccsccccccccccccccccccc"
       id="Ang_Mo_Kio_SMC"
       d="m 58.140837,232.09036 c -0.01857,-0.14849 0.631084,-1.22505 0.631084,-1.22505 l 0.742453,0.37123 0.334102,0.31554 c 0,0 0.965187,0 0.983747,-0.0742 0.01857,-0.0742 0.334103,-0.14849 0.334103,-0.14849 l 0.501155,-0.24129 -1.317852,-2.50578 -0.09281,-1.52202 -0.204173,-0.44547 -0.72389,0.0371 -0.01857,-0.38979 -0.649645,-0.12992 -0.129929,0.35266 -0.612521,0.0186 -0.01857,1.16937 0.09281,1.44777 -0.259858,0.0557 0.01857,0.5754 -0.911491,-0.25359 0.241424,0.51313 -0.362149,0.87519 -0.241432,0.81483 z"
       style="fill:#5193e5;fill-opacity:1;stroke:#ffffff;stroke-width:0.133546;stroke-linecap:butt;stroke-linejoin:miter;stroke-miterlimit:4;stroke-dasharray:none;stroke-opacity:1" />
    <path
       inkscape:label="Yio Chu Kang SMC"
       id="Yio_Chu_Kang_SMC"
       d="m 56.386866,226.41982 -0.06036,-2.11254 -0.935551,-1.11662 1.750386,-1.2977 0.386974,0.7497 0.259858,0.11137 v 0.40835 l 0.296981,0.50116 0.05568,0.50115 0.222737,0.3341 -0.03712,0.44547 0.334103,0.0371 -0.05568,0.51971 0.259858,0.0742 -0.20419,0.55687 -0.129929,0.35266 -0.612521,0.0186 -0.01857,1.16937 0.09281,1.44777 -0.259858,0.0557 0.01857,0.5754 -0.911492,-0.25359 -0.362149,0.0302 -0.03018,-0.5734 -0.60358,-0.24144 -0.603584,-0.78465 0.362151,-0.63376 z"
       style="fill:#2c5aa0;fill-opacity:1;stroke:#ffffff;stroke-width:0.133546;stroke-linecap:butt;stroke-linejoin:miter;stroke-miterlimit:4;stroke-dasharray:none;stroke-opacity:1" />
    <path
       inkscape:label="Teck Ghee SMC"
       id="Teck_Ghee_SMC"
       d="m 58.140837,232.09036 0.296981,-0.64965 0.3341,-0.5754 0.742456,0.37123 0.3341,0.31554 0.946626,-0.0928 0.371223,-0.12988 0.501156,-0.24129 0.575402,0.42686 0.519716,0.35266 0.334103,0.11137 h 0.389786 l 0.259858,0.18561 -0.07424,1.4849 -0.03712,0.53828 -0.352663,0.37123 -0.334106,0.53827 -2.270905,-2.30337 z"
       style="fill:#2c5aa0;fill-opacity:1;stroke:#ffffff;stroke-width:0.133546;stroke-linecap:butt;stroke-linejoin:miter;stroke-miterlimit:4;stroke-dasharray:none;stroke-opacity:1" />
    <path
       inkscape:label="Kreta Ayer SMC"
       id="Kreta_Ayer_SMC"
       d="m 56.50849,275.95158 2.698067,2.82731 0.32312,0.12925 c 0,0 0.177718,0.0646 0.242343,-0.2585 0.06462,-0.32312 -0.08078,-0.51699 -0.08078,-0.51699 l -0.210029,-0.42006 -0.242343,-0.22619 -0.210029,-0.45237 0.355434,-0.21003 0.403902,0.14541 0.339278,0.43621 1.825638,2.01951 0.533151,-0.53315 -0.516996,-0.32312 0.01617,-0.37159 0.161562,-0.12925 0.01617,-4.20058 2.988876,1.56714 0.90474,0.0323 2.342632,-1.26017 c 0,0 1.874107,-1.42174 1.938731,-1.43789 0.06462,-0.0162 0.79165,-0.517 0.79165,-0.517 l 0.258495,-0.59777 -0.16156,-0.61393 -0.323122,-0.80781 -0.565463,-0.72702 c 0,0 -2.940407,-1.5833 -3.392778,-1.69639 -0.452369,-0.11309 -0.775491,-0.14541 -0.775491,-0.14541 l -0.06462,-0.90474 h -2.633443 l -0.06462,0.27466 -0.436213,-0.0323 0.01617,0.56547 -0.420058,-0.0485 -0.274653,0.46852 c 0,0 -0.177718,-0.0162 -0.290809,-0.0162 -0.113094,0 -0.484682,-0.14541 -0.484682,-0.14541 l -0.226187,-0.21002 -0.129249,-0.84012 -0.403903,-0.37159 -0.290809,-0.19387 -0.817342,-0.0304 -0.706393,0.26025 -0.48332,-0.63204 -1.375603,-0.11153 -0.855101,0.74357 -1.710211,-0.48332 -0.297426,-1.041 -0.973101,-0.10735 0.1509,0.66394 0.301792,0.30179 0.120716,0.63376 -0.181078,0.78466 0.211256,0.87519 0.33197,0.51304 0.301789,0.60359 0.813927,-0.95973 0.594858,0.3346 0.44614,0.70639 0.520499,0.14872 0.780748,0.40896 0.148712,0.44614 0.446143,0.48332 0.03718,0.74357 -0.669213,0.78075 -0.260247,0.5205 0.223071,0.78074 0.148711,1.33843 -0.70639,0.48332 z"
       style="fill:#2c5aa0;fill-opacity:1;stroke:#ffffff;stroke-width:0.133546;stroke-linecap:butt;stroke-linejoin:miter;stroke-miterlimit:4;stroke-dasharray:none;stroke-opacity:1" />
    <path
       inkscape:label="Kampong Glam SMC"
       id="Kampong_Glam_SMC"
       d="m 71.38827,271.65405 1.443448,-1.23022 v -0.36593 l -2.589689,-2.87118 -1.491887,-3.06822 0.140745,-1.88596 h 0.478528 l 0.591126,0.33778 0.675572,-0.14074 0.506677,-0.30964 0.19704,-0.33779 0.647425,0.25334 0.05629,-0.45038 -0.647422,-1.12595 -0.08444,-0.78817 -1.407441,-0.16889 -0.168894,0.50668 -0.591124,0.19704 -0.19704,-0.59112 -0.872615,-0.78817 -0.675571,-0.0281 -0.760018,-0.22519 -2.589689,2.61784 -0.985208,-0.95706 -0.534826,-0.56298 -0.909412,-0.10967 -0.223073,1.82175 -1.078175,0.70639 -0.89228,0.22307 1.003816,1.18971 0.594854,0.37179 -0.185891,0.59485 -1.189659,1.71011 0.817343,0.0304 0.694711,0.56546 0.129249,0.84012 0.226187,0.21002 0.775491,0.16161 0.274654,-0.46852 0.420057,0.0485 -0.01617,-0.56547 0.436211,0.0323 0.06462,-0.27466 h 2.633443 l 0.06462,0.90474 0.835059,0.14251 1.125953,0.53483 2.207257,1.16446 0.565463,0.72702 z"
       style="fill:#5193e5;fill-opacity:1;stroke:#ffffff;stroke-width:0.133546;stroke-linecap:butt;stroke-linejoin:miter;stroke-miterlimit:4;stroke-dasharray:none;stroke-opacity:1" />
    <path
       inkscape:label="Mountbatten SMC"
       id="Mountbatten_SMC"
       d="m 72.831715,270.42383 3.237114,-2.73043 0.731869,-0.28149 0.50668,-0.33778 -0.337786,-0.50668 v -2.4208 l 0.309637,-0.28148 0.02815,-3.09637 -0.872615,-1.52004 0.337786,-0.14074 0.50668,-0.28149 1.63263,-0.1126 0.591124,-0.28148 -0.450379,-1.29485 -0.253342,-1.0978 -2.53339,0.28149 -0.647422,0.28148 -0.957059,0.0563 -0.0563,0.25334 h -0.731869 l -0.02815,0.33779 -0.309637,-0.0845 v 0.59113 h -0.197041 v 0.33778 l -0.309639,-0.0281 -0.02815,0.28149 -1.857822,-0.0845 -1.491888,0.67557 -0.70372,0.67558 0.197041,0.59112 0.591124,-0.19704 0.168894,-0.50668 1.40744,0.16889 0.08444,0.78817 0.647423,1.12595 -0.05629,0.45038 -0.647424,-0.25334 -0.197041,0.33779 -0.506674,0.30964 -0.675574,0.14074 -0.591124,-0.33778 h -0.478528 l -0.140745,1.88596 1.491884,3.06822 2.589689,2.87118 z"
       style="fill:#2c5aa0;fill-opacity:1;stroke:#ffffff;stroke-width:0.133546;stroke-linecap:butt;stroke-linejoin:miter;stroke-miterlimit:4;stroke-dasharray:none;stroke-opacity:1" />
    <path
       inkscape:label="Jalan Besar GRC"
       id="Jalan_Besar_GRC"
       d="m 75.61845,256.60277 0.0563,-1.60448 c 0,0 -0.309637,-0.42223 -0.253342,-0.56297 0.0563,-0.14075 0.0563,-2.70229 0.0563,-2.70229 l -0.478529,-0.59112 -2.392648,1.01336 -0.957059,-0.95707 -0.872614,-1.26669 -1.230283,-1.2536 -1.246812,1.59138 -1.016122,1.19728 1.737199,1.21146 0.182864,0.52573 -0.54859,0.0229 -2.171493,2.74295 -0.937176,-1.23433 -0.543261,-0.34172 -1.67328,2.30476 -0.557522,1.11562 -1.152533,1.74737 0.90941,0.10972 1.520034,1.52005 2.589688,-2.61784 0.760018,0.22519 0.675572,0.0281 0.872614,0.78817 0.703712,-0.67562 1.491888,-0.67557 1.857822,0.0845 0.02815,-0.28149 0.309636,0.0281 v -0.33779 h 0.197043 v -0.59112 l 0.309637,0.0845 0.02815,-0.33779 h 0.731869 l 0.0563,-0.25334 z"
       style="fill:#5193e5;fill-opacity:1;stroke:#ffffff;stroke-width:0.133546;stroke-linecap:butt;stroke-linejoin:miter;stroke-miterlimit:4;stroke-dasharray:none;stroke-opacity:1" />
    <path
       inkscape:label="Potong Pasir SMC"
       id="Potong_Pasir_SMC"
       d="m 74.999176,251.14191 0.337786,-0.98521 -1.745226,-5.65791 -1.322993,-1.18225 -1.857822,-0.0563 -0.168892,-1.40744 h -1.125953 l -1.125953,-0.76001 -1.294844,0.16889 0.08445,0.33778 -1.123958,-0.0435 -3.035133,0.036 5e-6,1.44005 h 2.811518 l 1.028602,0.89145 0.06857,0.48002 0.29715,0.4343 -0.251436,2.65151 0.228582,0.32001 0.480012,-0.0686 2.262934,0.93718 1.230283,1.2536 0.872614,1.26669 0.957059,0.95707 z"
       style="fill:#fe6666;fill-opacity:1;stroke:#ffffff;stroke-width:0.133546;stroke-linecap:butt;stroke-linejoin:miter;stroke-miterlimit:4;stroke-dasharray:none;stroke-opacity:1" />
    <path
       inkscape:label="Marine Parade GRC"
       id="Marine_Parade_GRC"
       d="m 75.477707,251.73303 1.210397,-0.36593 2.083009,-0.1126 0.816317,-0.30963 0.365934,0.22519 0.506677,2.50524 1.294847,-0.22519 0.168892,0.84446 1.238546,1.46374 1.688928,-0.45038 5.123082,-0.76002 1.63263,3.80009 -0.02815,2.53339 -4.616405,1.46374 -1.63263,0.67557 -2.533391,0.84447 -0.450381,0.59112 -0.591125,-0.1126 -0.394083,0.30964 -1.125953,0.33779 -0.900761,0.78816 0.112594,0.28149 h -0.872612 l -1.266695,1.01336 -0.337789,-0.50668 v -2.4208 l 0.30964,-0.28148 0.02815,-3.09637 -0.872615,-1.52004 0.844466,-0.42223 1.63263,-0.1126 0.591124,-0.28148 -0.450379,-1.29485 -0.253342,-1.0978 -2.53339,0.28149 -0.647422,0.28148 0.0563,-1.60448 -0.309637,-0.64742 z"
       style="fill:#2c5aa0;fill-opacity:1;stroke:#ffffff;stroke-width:0.133546;stroke-linecap:butt;stroke-linejoin:miter;stroke-miterlimit:4;stroke-dasharray:none;stroke-opacity:1" />
    <path
       inkscape:label="MacPherson SMC"
       id="MacPherson_SMC"
       d="m 75.477705,251.73303 1.210397,-0.36593 2.083009,-0.1126 0.02815,-1.40744 -0.478528,-0.11259 -0.450381,-0.22519 -0.112596,-0.73187 -0.450379,-0.56298 h -0.422233 l 0.309637,0.78817 -0.760019,0.28149 0.168894,0.78816 -0.422232,0.33779 -1.182251,0.73187 z"
       style="fill:#5193e5;fill-opacity:1;stroke:#ffffff;stroke-width:0.133546;stroke-linecap:butt;stroke-linejoin:miter;stroke-miterlimit:4;stroke-dasharray:none;stroke-opacity:1" />
    <path
       inkscape:label="Aljunied GRC"
       id="Aljunied_GRC"
       d="m 70.242026,241.8528 0.562978,-1.54818 2.223754,-2.53339 0.844466,0.0844 1.210397,0.39409 1.660779,0.0281 1.238549,-0.70372 1.604481,0.0844 -0.506677,1.80153 0.788164,1.0978 0.08445,2.02671 2.336351,1.43559 0.675571,-0.81631 1.491887,0.45038 1.210398,1.32299 1.125952,1.2667 0.534827,1.18225 -0.760019,0.67557 -0.42223,0.42223 0.562975,0.30963 -0.08445,0.70373 1.182251,-0.1689 6.586818,-3.29341 0.112596,0.59113 1.266696,-0.0563 0.309636,1.40744 -1.435589,0.14074 0.225192,0.36594 -1.773375,-0.0845 -0.253339,0.39408 -0.731869,0.33779 0.647422,0.67557 0.168894,1.77338 0.42223,0.61927 0.0563,0.98521 0.872615,0.53483 0.42223,2.1393 -0.872612,0.2252 -1.379291,0.50667 -1.379292,0.47853 -1.097806,-2.56154 -5.123082,0.76002 -1.688928,0.45038 -1.238547,-1.46374 -0.168891,-0.84446 -1.294847,0.22519 -0.506677,-2.50524 -0.365935,-0.22519 -0.816316,0.30963 0.02815,-1.40744 -0.92891,-0.33778 -0.112596,-0.73187 -0.450379,-0.56298 h -0.422233 l 0.309637,0.78817 -0.760018,0.28149 0.168894,0.78816 -1.604479,1.06966 0.337783,-0.98521 -1.745226,-5.65791 -1.32299,-1.18225 -1.857822,-0.0563 z"
       style="fill:#afc6e9;fill-opacity:1;stroke:#ffffff;stroke-width:0.133546;stroke-linecap:butt;stroke-linejoin:miter;stroke-miterlimit:4;stroke-dasharray:none;stroke-opacity:1" />
    <path
       inkscape:label="Braddell Heights SMC"
       id="Braddell_Heights_SMC"
       d="m 70.242024,241.8528 h -1.12595 l -1.125953,-0.76001 -1.294845,0.16889 0.08445,0.33778 -1.123961,-0.0435 -0.07356,-0.42897 h 0.34109 l -0.149227,-1.79073 1.236459,-1.59887 1.001955,-0.98064 1.300412,-0.44768 0.02133,-2.53687 -0.277138,-0.10659 -0.04263,-1.12986 1.876005,0.064 0.06395,0.29845 h 0.682183 l 0.362411,0.72482 v 1.30041 l 0.554273,0.0213 0.170547,0.469 0.362408,0.51164 0.596911,0.51164 0.106592,0.51163 -0.106592,0.44768 -0.362411,0.0213 -0.291967,0.35356 -1.136351,1.30926 -1.087404,1.22413 z"
       style="fill:#afc6e9;fill-opacity:1;stroke:#ffffff;stroke-width:0.133546;stroke-linecap:butt;stroke-linejoin:miter;stroke-miterlimit:4;stroke-dasharray:none;stroke-opacity:1" />
    <path
       inkscape:label="Serangoon Gardens SMC"
       id="Serangoon_Gardens_SMC"
       d="m 73.789734,236.94864 4.498137,-4.05044 -0.959321,-1.04459 -0.04264,-1.34305 -4.007824,-0.85273 -2.64346,-0.66086 -1.982594,-0.21318 -0.191863,0.34109 -0.554275,0.2345 -0.639546,0.40504 -1.129866,-0.10659 0.04264,1.17251 -2.025232,5.92646 1.428313,4.37019 h 0.341091 l -0.149228,-1.79073 1.236459,-1.59887 1.001956,-0.98064 1.300411,-0.44768 0.02132,-2.53687 -0.277138,-0.10659 -0.04263,-1.12986 1.876004,0.064 0.06395,0.29845 h 0.682183 l 0.36241,0.72482 v 1.30041 l 0.554273,0.0213 0.170548,0.469 0.362408,0.51164 0.59691,0.51164 z"
       style="fill:#2c5aa0;fill-opacity:1;stroke:#ffffff;stroke-width:0.133546;stroke-linecap:butt;stroke-linejoin:miter;stroke-miterlimit:4;stroke-dasharray:none;stroke-opacity:1" />
    <path
       inkscape:label="Cheng San GRC"
       sodipodi:nodetypes="cccccccccccccccccccccccccccccccccccccccccccccccccccccccccccccccccccccccccccc"
       id="Cheng_San_GRC"
       d="m 64.153887,236.7568 -0.290367,-0.69702 -0.915307,-0.96249 0.334108,-0.53827 0.352663,-0.37123 0.111358,-2.02318 -0.259858,-0.18561 H 63.0967 l -0.334106,-0.11137 -0.576257,-0.3788 -0.518858,-0.40072 -1.31785,-2.50579 -0.09281,-1.52202 -0.204173,-0.44547 -0.72389,0.0371 -0.01857,-0.38979 -0.649644,-0.12992 0.204192,-0.55695 -0.259858,-0.0742 0.05568,-0.51971 -0.334103,-0.0371 0.03712,-0.44547 -0.222737,-0.3341 -0.05568,-0.50115 -0.296982,-0.50116 v -0.40835 l -0.259857,-0.11137 -0.386975,-0.7497 0.271616,-0.78466 -0.09054,-1.26752 -1.116627,-2.89719 -0.60358,-0.21126 0.422505,-2.56522 0.181075,-0.5734 0.935551,-0.0604 1.690032,0.42251 1.448596,-0.45269 2.65576,-3.07827 1.871102,-1.59949 0.543224,-3.1688 0.379701,-0.71787 2.232422,-3.3321 1.904404,2.84138 1.165752,0.84574 0.937173,0.82288 0.754311,1.48576 2.3315,1.32576 0.480015,-0.29716 0.868601,-0.34286 2.262928,0.89145 1.622909,0.29715 1.028605,0.57145 0.617162,0.22858 -0.205722,0.8686 -0.388583,0.4343 -1.897202,1.96578 -1.280041,0.50287 -0.617162,2.74294 -0.320011,0.7086 -0.502872,0.73145 -0.731454,0.34287 -0.457158,0.27429 0.04572,1.94292 -0.502872,0.20572 -0.114289,0.68574 -1.165752,0.45715 -0.480015,1.85149 0.04571,5.66875 -2.729208,-0.66323 -1.982594,-0.21318 -0.191866,0.34109 -0.554272,0.2345 -0.639546,0.40504 -1.129866,-0.10659 0.04264,1.17251 z"
       style="fill:#19355c;fill-opacity:1;stroke:#ffffff;stroke-width:0.133546;stroke-linecap:butt;stroke-linejoin:miter;stroke-miterlimit:4;stroke-dasharray:none;stroke-opacity:1" />
    <path
       inkscape:label="Siglap SMC"
       id="Siglap_SMC"
       d="m 91.578815,260.88139 4.284247,-1.17591 1.597906,-0.0743 1.374941,-0.63173 1.672221,-0.40876 1.67223,-0.55741 c 0,0 1.37494,-0.85469 1.59791,-0.85469 0.22296,0 2.15531,-0.29729 2.15531,-0.29729 l 0.89185,-0.22296 h 0.40877 l -0.44593,-0.96618 -0.81753,-2.04383 -1.82087,0.52025 -0.81753,-2.19248 -1.82087,0.33445 -2.080992,0.29728 -0.631729,0.29729 h -2.155315 l -0.111482,-0.59457 -0.111482,-1.63507 -3.49051,0.9448 0.42223,0.61927 0.0563,0.98521 0.872615,0.53483 0.42223,2.1393 -0.872612,0.2252 -2.758583,0.9852 0.534824,1.23873 z"
       style="fill:#2c5aa0;fill-opacity:1;stroke:#ffffff;stroke-width:0.133546;stroke-linecap:butt;stroke-linejoin:miter;stroke-miterlimit:4;stroke-dasharray:none;stroke-opacity:1" />
    <path
       inkscape:label="Bedok GRC"
       id="Bedok_GRC"
       d="m 96.082623,248.01726 1.749949,-0.38897 0.222965,1.30063 1.858028,-0.18581 0.185805,0.63173 -0.0372,0.96618 3.56741,-0.63173 2.93569,-1.18914 2.60124,3.53025 -0.81753,0.81754 -1.30062,0.44593 -1.07766,0.33446 -1.82087,0.52025 -0.81753,-2.19248 -3.901864,0.63173 -0.63173,0.29729 h -2.155314 l -0.111483,-0.59457 -0.111482,-1.63507 -3.490507,0.94478 -0.168895,-1.77338 -0.647422,-0.67557 0.73187,-0.33779 0.253338,-0.39408 1.773375,0.0845 -0.225192,-0.36594 z"
       style="fill:#afc6e9;fill-opacity:1;stroke:#ffffff;stroke-width:0.133546;stroke-linecap:butt;stroke-linejoin:miter;stroke-miterlimit:4;stroke-dasharray:none;stroke-opacity:1" />
    <path
       inkscape:label="Fengshan SMC"
       sodipodi:nodetypes="cccccccccccc"
       id="Fengshan_SMC"
       d="m 100.06217,250.34102 2.30399,-0.40877 -0.44592,-2.30396 -0.66889,-0.63172 -1.486428,0.0372 -0.743212,0.0372 -0.222961,0.3716 -0.966179,0.1858 0.222964,1.30063 1.858029,-0.18581 0.185807,0.63173 z"
       style="fill:#afc6e9;fill-opacity:1;stroke:#ffffff;stroke-width:0.133546;stroke-linecap:butt;stroke-linejoin:miter;stroke-miterlimit:4;stroke-dasharray:none;stroke-opacity:1" />
    <path
       inkscape:label="Paya Lebar SMC"
       id="Paya_Lebar_SMC"
       d="m 84.457173,243.6542 3.193402,-6.0221 3.8647,-8.9557 0.854691,-2.00667 0.408768,-0.92902 -0.111482,-0.63173 -0.445926,-0.22296 -1.003337,0.29728 -0.408765,0.33445 -0.966177,1.78371 -1.96951,4.71939 -0.63173,0.48309 -1.226299,0.33444 -4.124825,0.33445 -1.412102,0.11148 -0.07432,-0.89185 -0.594572,-0.66889 h -0.334444 l -1.187375,1.17463 -4.498139,4.05044 -0.10659,0.44768 -0.362411,0.0213 -0.291975,0.35361 0.844468,0.0844 1.210394,0.39409 1.660779,0.0281 1.238549,-0.70372 1.604481,0.0844 -0.506677,1.80153 0.788165,1.0978 0.08445,2.02671 2.336353,1.43559 0.675571,-0.81631 z"
       style="fill:#afc6e9;fill-opacity:1;stroke:#ffffff;stroke-width:0.133546;stroke-linecap:butt;stroke-linejoin:miter;stroke-miterlimit:4;stroke-dasharray:none;stroke-opacity:1" />
    <path
       inkscape:label="Hougang SMC"
       id="Hougang_SMC"
       d="m 77.285909,230.51056 0.481068,0.0339 0.119362,-0.55702 0.417761,-0.25861 0.298402,-0.39787 0.596805,-0.59681 0.457552,0.29841 0.656484,-0.19894 0.477443,0.13926 0.179041,0.55701 0.477444,0.17904 1.193609,-0.95488 2.546366,-2.50658 0.835528,0.11936 -0.03979,0.51723 -0.437656,0.69627 -0.815633,1.05436 -1.13393,2.24796 -0.895205,0.99467 -0.676378,0.57692 -0.05968,0.73605 -1.485924,0.0941 -0.07432,-0.89185 -0.594571,-0.66889 h -0.334444 l -1.187373,1.17463 -0.959321,-1.04459 z"
       style="fill:#afc6e9;fill-opacity:1;stroke:#ffffff;stroke-width:0.133546;stroke-linecap:butt;stroke-linejoin:miter;stroke-miterlimit:4;stroke-dasharray:none;stroke-opacity:1" />
    <path
       inkscape:label="Eunos GRC"
       id="Eunos_GRC"
       d="m 86.624627,249.5373 1.182251,-0.1689 6.586817,-3.29341 0.112597,0.59113 1.266695,-0.0563 0.309634,1.40744 1.749949,-0.38897 0.966176,-0.18572 0.222962,-0.3716 v 0 0 0 l 0.484547,-0.0359 -0.524708,-3.05641 1.049413,-0.28859 1.02318,-1.50853 v -1.14124 l -1.731532,-0.45912 -3.410593,-2.03324 0.49847,-1.1937 4.958475,2.11194 -0.0656,-0.90512 0.43289,-0.55094 0.86576,-0.0131 0.0394,-1.81024 0.38041,-0.0263 0.30171,-0.27547 3.58112,-0.24923 0.51159,0.19676 0.13117,0.24924 1.42983,-0.0525 0.15741,1.18059 -0.38041,0.14429 v 0.53782 h 0.24923 l 0.0787,0.31483 0.30171,-0.0131 0.0262,0.31482 0.30171,0.0787 -0.0263,0.31482 1.45606,-0.26235 0.11806,-0.223 1.32488,-0.0131 0.15742,0.31483 0.51159,0.0525 0.0262,-1.32489 -1.67906,-3.345 5.32577,-5.24707 -2.46612,-2.62353 -0.223,-0.90512 -0.36729,-0.83953 -4.9716,-0.0918 -2.47924,-0.82642 -2.82029,-1.46918 -3.12201,-2.12506 -4.801067,-2.02012 -1.469178,-0.82641 -2.374297,2.19065 -0.747707,0.91824 -0.07871,0.87888 -0.655883,1.14124 -0.839531,0.31482 -0.878885,0.18365 -1.862709,-0.20989 -0.642765,0.65589 -0.419764,1.784 -0.519227,1.26323 0.835528,0.11936 -0.03979,0.51723 -0.437658,0.69627 c 0,0 -0.815631,1.05436 -0.815631,1.05436 l -1.13393,2.24796 -0.895205,0.99467 -0.676378,0.57692 -0.05968,0.73605 4.051006,-0.35191 1.226299,-0.33444 0.63173,-0.48309 1.969511,-4.71939 0.966176,-1.78371 0.408765,-0.33445 1.003337,-0.29728 0.445926,0.22296 0.111483,0.63173 -5.12816,11.89139 -3.193401,6.0221 2.336352,2.58969 0.534829,1.18225 -1.182251,1.0978 0.562975,0.30963 z"
       style="fill:#afc6e9;fill-opacity:1;stroke:#ffffff;stroke-width:0.133546;stroke-linecap:butt;stroke-linejoin:miter;stroke-miterlimit:4;stroke-dasharray:none;stroke-opacity:1" />
    <path
       inkscape:label="Punggol SMC"
       id="Punggol_SMC"
       d="m 81.447268,229.70893 -0.477443,-0.17904 -0.179041,-0.55701 -0.477443,-0.13926 -0.656485,0.19894 -0.457551,-0.29841 -0.596805,0.59681 -0.298403,0.39787 -0.417761,0.25861 -0.119361,0.55702 -0.481068,-0.0339 -3.922072,-0.85036 -0.04571,-5.66875 0.480015,-1.85149 1.165752,-0.45715 0.114289,-0.68574 0.502872,-0.20572 -0.04572,-1.94292 0.457158,-0.27429 0.731454,-0.34287 0.502872,-0.73145 0.320011,-0.7086 0.617162,-2.74294 1.280041,-0.50287 2.285786,-2.40008 0.205721,-0.8686 2.51959,-0.20415 0.25876,-0.93801 0.582213,-0.38814 1.261462,-0.97036 0.420486,-1.2938 0.355796,-0.0324 0.291108,0.54987 0.646903,-0.51752 1.196769,0.16172 -0.06469,1.6496 0.549868,0.80863 1.552567,2.78168 0.840975,0.74394 0.873319,1.19678 1.390843,0.48517 0.388141,0.61456 0.355796,0.84097 -0.03235,0.51753 -0.582213,0.22641 -0.53427,0.61754 -2.374297,2.19065 -0.747707,0.91824 -0.07871,0.87888 -0.655883,1.14124 -0.839531,0.31482 -0.878885,0.18365 -1.862709,-0.20989 -0.642766,0.65589 -0.419764,1.784 -0.519118,1.26319 -2.546366,2.50658 z"
       style="fill:#afc6e9;fill-opacity:1;stroke:#ffffff;stroke-width:0.133546;stroke-linecap:butt;stroke-linejoin:miter;stroke-miterlimit:4;stroke-dasharray:none;stroke-opacity:1" />
    <path
       inkscape:label="Changi SMC"
       transform="matrix(0.26458333,0,0,0.26458333,-54.82309,172.97269)"
       d="m 792.97656,107.44336 -2.94922,1.54492 -1.54492,3.08984 -3.79101,1.68555 -3.3711,-2.38672 -7.44336,-0.14062 -2.81054,-2.66992 -2.52735,1.68554 -1.96679,2.10743 -0.41993,3.51171 -6.04101,3.79102 -11.09375,-0.14063 c 0,0 -1.96769,-1.68501 -2.66992,-1.26367 -0.70224,0.42134 -1.26368,3.65235 -1.26368,3.65235 l 0.98243,6.46093 3.08984,7.02149 -0.2793,5.75781 -0.5625,1.9668 -1.68554,2.66797 -1.54493,2.66992 1.12305,5.33594 6.46094,3.79296 4.77539,-3.93164 -1.9668,3.93164 4.07422,4.49414 1.68555,6.03907 2.24609,3.51172 2.94922,-0.8418 -0.56055,3.79101 3.93164,3.51172 6.88282,9.41016 -1.54493,2.52734 3.51172,0.42188 3.50977,5.33789 7.44531,-2.24805 -0.14062,-2.24609 3.93164,-5.19727 21.91015,-8.56836 5.19727,-2.24609 5.33594,1.68555 6.17968,-1.82618 2.10743,-2.94921 4.91601,-19.24219 0.42188,-3.51172 1.82422,-2.52734 1.96679,0.70312 -0.70117,-4.07422 -1.54492,-2.94922 -6.03906,-11.23632 -18.25977,-13.3418 -20.08398,-8.42774 z M 583.71289,115.25 c -0.77361,0.0172 -1.80664,0.1543 -1.80664,0.1543 l -0.97656,1.83398 -4.03516,0.36524 -2.93359,3.30078 -2.20117,0.36718 -2.32227,-0.12304 v 2.8125 l 1.22266,2.93359 1.22265,2.20117 2.07813,1.58789 2.5664,0.36719 1.58985,2.68945 2.44531,-1.22265 2.44531,-0.36524 -0.36719,2.44532 5.86719,1.58789 4.76758,0.73437 0.61133,3.54492 3.54687,0.85547 c 0,0 0.48799,2.2004 1.34375,2.07813 0.85573,-0.12208 4.40039,0.12304 4.40039,0.12304 0,0 2.32351,2.19922 2.8125,2.19922 0.489,0 2.56641,0.12305 2.56641,0.12305 l -0.61133,4.0332 4.52344,2.8125 4.03516,0.12305 2.5664,4.15625 c 0,0 3.05742,2.07741 3.17969,2.56641 0.12208,0.48899 1.4668,3.42382 1.4668,3.42382 l 11.36914,-2.32226 h 5.01172 l 3.91211,-2.32422 3.42382,0.36719 5.01172,-4.03321 -0.61133,-1.95703 4.15625,-1.95507 5.37891,-2.32422 3.05664,1.71289 c 0,0 1.46686,-0.85661 2.07813,-0.73438 0.61122,0.12246 2.44459,0.73438 2.93359,0.73438 0.489,0 3.30085,-1.71247 3.91211,-1.34571 0.61122,0.36662 2.56641,0.97852 2.56641,0.97852 l 2.8125,-1.4668 1.95703,1.09961 h 1.71093 c 0,0 1.46628,0.48925 0.48829,-0.85547 -0.97799,-1.34475 -0.97852,-1.83398 -0.97852,-1.83398 0,0 0.12346,-0.61097 -0.36523,-0.85547 -0.489,-0.24454 -1.46762,-0.85671 -1.58985,-1.3457 -0.12245,-0.489 1.09961,-5.25586 1.09961,-5.25586 l 1.10156,-1.4668 c 0,0 -0.36785,-1.46654 -0.49023,-2.32227 -0.12208,-0.85575 -0.36519,-2.68991 -0.97656,-3.05664 -0.61127,-0.36661 -3.30078,-1.46679 -3.30078,-1.46679 h -4.03516 l -1.71094,-1.22266 c 0,0 -0.61149,-0.12283 -1.83398,0.48828 -1.22249,0.61123 -2.07813,1.95703 -2.07813,1.95703 l -3.17968,-0.36718 -0.85547,-0.12305 -3.17774,0.97851 -2.32226,-0.36718 -5.13477,-2.32227 -1.3457,2.07813 -3.42188,-2.68946 h -8.67968 l -5.99024,1.4668 -3.91211,2.07813 -8.3125,-1.22266 -1.95703,-2.19922 -2.93359,-0.12305 c 0,0 -1.95632,1.34606 -2.44532,1.10157 -0.48899,-0.24454 -2.44531,-2.20118 -2.44531,-2.20118 l -3.66797,-0.73437 -0.24414,-2.81055 -4.40039,-2.8125 -3.91211,-0.36719 -12.59179,-5.99023 c 0,0 -1.83407,-0.12206 -2.44532,-0.24414 -0.15281,-0.0305 -0.3808,-0.037 -0.63867,-0.0312 z m 145.13867,6.02148 -1.3457,1.09961 -0.24414,4.15625 -3.54492,4.15821 0.61132,6.8457 4.27735,1.58789 1.3457,2.20117 9.04688,-0.73437 3.42187,-2.07813 0.12305,-2.81054 -2.56641,-6.84571 -3.54687,-1.83398 c 0,0 -3.42198,-1.83399 -4.03321,-1.83399 -0.61126,0 -1.71093,-2.20117 -1.71093,-2.20117 z m -177.14062,10.75782 -1.83399,1.34375 v 2.68945 l 0.49024,0.97852 6.96679,4.15625 1.83399,5.86914 5.01367,2.93359 0.48828,3.42383 2.20117,0.12109 2.44336,-1.34375 c 0,0 4.27974,3.42116 4.64649,3.91016 0.36676,0.48899 3.42383,3.05664 3.42383,3.05664 l 0.12109,-3.05664 -3.78906,-3.78906 -11.49219,-10.63477 -2.07813,-0.61133 -5.25586,-6.11328 z m 52.56836,17.35937 c 0,0 -0.85654,1.58922 -0.12305,2.68945 l 3.42383,3.42383 1.58789,3.05469 2.56836,1.22266 2.5664,2.8125 h 3.54493 l -2.19922,-4.76758 -3.05664,-1.3457 -5.50196,-2.56641 -1.34375,-2.8125 z m 69.55664,23.61328 c -1.03701,0.028 -2.11856,0.18128 -1.64453,0.73438 0.84268,0.98313 4.35351,3.79101 4.35351,3.79101 l 2.24805,1.9668 -3.79297,-1.82617 -3.37109,-2.10547 -2.10743,-0.42188 -1.68359,-0.28124 -2.38867,-1.12305 -2.2461,2.24805 -3.51171,-1.54493 -3.79297,0.56055 -0.8418,1.12305 -1.4043,1.125 -3.79296,1.68554 1.26367,4.07227 3.51172,1.4043 1.82617,2.80859 h -1.9668 l -0.70117,-1.96484 -1.82617,0.98242 -1.9668,-1.12305 -2.38672,-0.70312 -7.72656,6.60156 1.26562,0.98242 -3.57226,2.70117 2.23047,6.59375 9.32226,9.91602 -20.1289,19.83203 6.3457,12.64258 -0.0996,5.00781 -1.93359,-0.19922 -0.59571,-1.18945 -5.00586,0.0488 -0.44726,0.84375 -5.50196,0.99023 -16.56835,13.88086 8.70703,10.39258 -11.51758,6.03906 -3.08984,2.66992 h -6.88086 l 1.68554,8.70703 4.77539,-0.84179 11.09571,-4.4961 9.83007,13.34375 -3.08984,3.08985 -8.98828,2.94922 4.77539,11.37695 6.88281,-1.26563 c 0,0 4.63406,-0.56139 5.61719,-1.26367 0.98317,-0.70223 1.96555,-1.82617 2.52734,-1.82617 0.56179,0 3.79368,-1.26385 4.35547,-1.4043 0.56179,-0.1406 6.17845,-0.4201 6.74024,-0.56054 0.56179,-0.1406 5.6179,-1.96698 6.17968,-2.10743 0.56183,-0.14059 6.32032,-0.84179 6.32032,-0.84179 l 3.65234,-0.28125 1.82617,2.66797 0.14063,-1.4043 2.24609,-0.70313 c 0,0 1.40572,-2.10529 2.5293,-1.96484 1.12361,0.1406 5.19531,0.14063 5.19531,0.14063 l 37.92188,-89.18555 -0.42188,-9.41016 c 0,0 -1.82422,-2.24734 -1.82422,-3.23047 0,-0.98313 -4.63476,-12.78125 -4.63476,-12.78125 l -0.14063,-3.79297 -3.79297,-5.89843 -7.44336,-1.68555 -6.32031,-2.24609 -4.63476,-4.21485 c 0,0 -0.25437,-0.0164 -0.62305,-0.0273 -0.27651,-0.008 -0.61722,-0.013 -0.96289,-0.004 z"
       style="fill:#afc6e9;fill-opacity:1;stroke:#ffffff;stroke-width:0.50474;stroke-linecap:butt;stroke-linejoin:miter;stroke-miterlimit:4;stroke-dasharray:none;stroke-opacity:1"
       id="Changi_SMC" />
    <path
       inkscape:label="Tampines GRC"
       id="Tampines_GRC"
       d="m 101.92024,247.62829 h 1.82086 l 0.81754,-0.70605 3.04716,-1.5979 -2.30395,-2.74988 4.38364,-3.67241 0.0263,-0.31482 -0.30171,-0.0787 -0.0262,-0.31482 -0.30171,0.0131 -0.0787,-0.31483 h -0.24923 v -0.53782 c 0,0 0.38041,-0.14429 0.38041,-0.14429 l -0.15741,-1.18059 -1.42983,0.0525 -0.13117,-0.24924 -0.51159,-0.19676 -3.58112,0.24923 -0.30171,0.27547 -0.38041,0.0263 -0.0394,1.81023 -0.86576,0.0131 -0.43289,0.55094 0.0656,0.90512 -4.958473,-2.11194 -0.49847,1.1937 3.410593,2.03324 1.73153,0.45912 v 1.14124 l -1.02318,1.50853 -1.049411,0.28859 0.524709,3.05641 1.745092,-0.0385 z"
       style="fill:#5193e5;fill-opacity:1;stroke:#ffffff;stroke-width:0.133546;stroke-linecap:butt;stroke-linejoin:miter;stroke-miterlimit:4;stroke-dasharray:none;stroke-opacity:1" />
    <path
       inkscape:label="Nee Soon Central SMC"
       id="Nee_Soon_Central_SMC"
       d="m 50.991911,206.68309 1.157224,0.68382 1.47283,-0.47341 0.52601,0.1052 0.789017,-1.15723 -0.789017,-1.73583 0.368207,-1.05202 -0.683813,-1.31503 -1.420227,-0.1052 -2.998261,-0.2104 0.210404,0.63121 0.315606,0.63121 -1.315027,0.1578 -0.315605,0.57862 1.367625,1.47283 1.946241,-0.0526 -0.0526,1.10462 z"
       style="fill:#afc6e9;fill-opacity:1;stroke:#ffffff;stroke-width:0.133546;stroke-linecap:butt;stroke-linejoin:miter;stroke-miterlimit:4;stroke-dasharray:none;stroke-opacity:1" />
  </g>
  <text
     x="230.15782"
     y="166.98903"
     enable-background="new"
     fill="#4d4d4d"
     font-family="Arial"
     font-size="9.87766px"
     font-weight="bold"
     letter-spacing="0px"
     stroke-width="0.315397"
     word-spacing="0px"
     style="line-height:1.25;font-variant-ligatures:normal;font-variant-caps:normal;font-variant-numeric:normal;font-feature-settings:normal"
     xml:space="preserve"
     id="text2151"><tspan
       x="230.15782"
       y="166.98903"
       fill="#4d4d4d"
       font-family="Arial"
       font-size="9.87766px"
       font-weight="bold"
       stroke-width="0.315397"
       id="tspan2149">&gt;70%</tspan></text>
  <rect
     style="stroke-width:0.352774"
     x="266.96576"
     y="175.79514"
     width="11.902231"
     height="11.902231"
     enable-background="new"
     fill="#5193e5"
     id="rect2153" />
  <text
     x="230.15782"
     y="185.20326"
     enable-background="new"
     fill="#4d4d4d"
     font-family="Arial"
     font-size="9.87766px"
     font-weight="bold"
     letter-spacing="0px"
     stroke-width="0.315397"
     word-spacing="0px"
     style="line-height:1.25;font-variant-ligatures:normal;font-variant-caps:normal;font-variant-numeric:normal;font-feature-settings:normal"
     xml:space="preserve"
     id="text2157"><tspan
       x="230.15782"
       y="185.20326"
       fill="#4d4d4d"
       font-family="Arial"
       font-size="9.87766px"
       font-weight="bold"
       stroke-width="0.315397"
       id="tspan2155">&gt;60%</tspan></text>
  <rect
     style="stroke-width:0.352774"
     x="266.96576"
     y="193.99826"
     width="11.902231"
     height="11.902231"
     enable-background="new"
     fill="#afc6e9"
     id="rect2159" />
  <text
     x="230.15782"
     y="203.41748"
     enable-background="new"
     fill="#4d4d4d"
     font-family="Arial"
     font-size="9.87766px"
     font-weight="bold"
     letter-spacing="0px"
     stroke-width="0.315397"
     word-spacing="0px"
     style="line-height:1.25;font-variant-ligatures:normal;font-variant-caps:normal;font-variant-numeric:normal;font-feature-settings:normal"
     xml:space="preserve"
     id="text2163"><tspan
       x="230.15782"
       y="203.41748"
       fill="#4d4d4d"
       font-family="Arial"
       font-size="9.87766px"
       font-weight="bold"
       stroke-width="0.315397"
       id="tspan2161">&gt;50%</tspan></text>
  <text
     x="262.99713"
     y="151.64914"
     enable-background="new"
     fill="#4d4d4d"
     font-family="Arial"
     font-size="9.87766px"
     font-weight="bold"
     letter-spacing="0px"
     stroke-width="0.26458"
     word-spacing="0px"
     style="line-height:1.25;font-variant-ligatures:normal;font-variant-caps:normal;font-variant-numeric:normal;font-feature-settings:normal"
     xml:space="preserve"
     id="text2167"><tspan
       x="262.99713"
       y="151.64914"
       fill="#4d4d4d"
       font-family="Arial"
       font-size="9.87766px"
       font-weight="bold"
       stroke-width="0.26458"
       id="tspan2165">PAP</tspan></text>
  <rect
     style="fill:#fe6666;fill-opacity:1;stroke-width:0.352774"
     x="302.10199"
     y="175.79514"
     width="11.902231"
     height="11.902231"
     enable-background="new"
     fill="#e75a65"
     id="rect2169" />
  <rect
     style="fill:#fea5a5;fill-opacity:1;stroke-width:0.352774"
     x="302.10199"
     y="193.99826"
     width="11.902231"
     height="11.902231"
     enable-background="new"
     fill="#ffaaaa"
     id="rect2171" />
  <text
     x="297.67352"
     y="151.64914"
     enable-background="new"
     fill="#4d4d4d"
     font-family="Arial"
     font-size="9.87766px"
     font-weight="bold"
     letter-spacing="0px"
     stroke-width="0.26458"
     word-spacing="0px"
     style="line-height:1.25;font-variant-ligatures:normal;font-variant-caps:normal;font-variant-numeric:normal;font-feature-settings:normal"
     xml:space="preserve"
     id="text2175"
     inkscape:label="text2175"><tspan
       x="297.67352"
       y="151.64914"
       fill="#4d4d4d"
       font-family="Arial"
       font-size="9.87766px"
       font-weight="bold"
       stroke-width="0.26458"
       id="tspan2173">SDP</tspan></text>
  <rect
     style="stroke-width:0.352774"
     x="266.96576"
     y="157.592"
     width="11.902231"
     height="11.902231"
     enable-background="new"
     fill="#2c5aa0"
     id="rect2177" />
  <rect
     style="fill:#fe0000;fill-opacity:1;stroke-width:0.352774"
     x="302.10199"
     y="157.592"
     width="11.902231"
     height="11.902231"
     enable-background="new"
     fill="#aa0000"
     id="rect2179" />
  <rect
     id="rect2177-9"
     fill="#2c5aa0"
     enable-background="new"
     height="11.902231"
     width="11.902231"
     y="127.14587"
     x="235.88098"
     style="fill:#19355c;fill-opacity:1;stroke-width:0.352774" />
  <text
     id="text2167-7"
     xml:space="preserve"
     style="line-height:1.25;font-variant-ligatures:normal;font-variant-caps:normal;font-variant-numeric:normal;font-feature-settings:normal"
     word-spacing="0px"
     stroke-width="0.26458"
     letter-spacing="0px"
     font-weight="bold"
     font-size="9.87766px"
     font-family="Arial"
     fill="#4d4d4d"
     enable-background="new"
     y="134.70305"
     x="249.02313"><tspan
       style="font-size:5.99722px"
       id="tspan2165-9"
       stroke-width="0.26458"
       font-weight="bold"
       font-size="9.87766px"
       font-family="Arial"
       fill="#4d4d4d"
       y="134.70305"
       x="249.02313">Uncontested walkover (PAP)</tspan></text>
</svg>
